<?xml version="1.0" encoding="UTF-8"?>
<svg id="Camada_2" data-name="Camada 2" xmlns="http://www.w3.org/2000/svg" viewBox="0 0 219.16 219.16">
  <defs>
    <style>
      .cls-1 {
        fill: #076b30;
      }

      .cls-1, .cls-2, .cls-3, .cls-4, .cls-5, .cls-6, .cls-7, .cls-8, .cls-9, .cls-10, .cls-11, .cls-12, .cls-13, .cls-14, .cls-15, .cls-16, .cls-17, .cls-18 {
        stroke-width: 0px;
      }

      .cls-19 {
        fill: #e72766;
        font-size: 16px;
      }

      .cls-19, .cls-20, .cls-21, .cls-22, .cls-23 {
        font-family: BerlinSansFBDemi-Bold, 'Berlin Sans FB Demi';
        font-weight: 700;
      }

      .cls-2 {
        fill: #3bbff0;
      }

      .cls-3 {
        fill: #95c11f;
      }

      .cls-4 {
        fill: #019539;
      }

      .cls-5 {
        fill: #d49007;
      }

      .cls-6 {
        fill: #8a2512;
      }

      .cls-7 {
        fill: #abcc5d;
      }

      .cls-20 {
        font-size: 14px;
      }

      .cls-20, .cls-21, .cls-22, .cls-23 {
        fill: #312783;
      }

      .cls-8, .cls-13 {
        fill: #0077b3;
      }

      .cls-9 {
        fill: #b7cd00;
      }

      .cls-10 {
        fill: #113e1e;
      }

      .cls-11 {
        fill: #038b38;
      }

      .cls-12 {
        fill: #724494;
      }

      .cls-13 {
        fill-rule: evenodd;
      }

      .cls-21 {
        font-size: 10px;
      }

      .cls-24 {
        fill: none;
        stroke: #fff;
        stroke-miterlimit: 10;
        stroke-width: .67px;
      }

      .cls-14 {
        fill: #00a19a;
      }

      .cls-15 {
        fill: #d43116;
      }

      .cls-22 {
        font-size: 17px;
      }

      .cls-16 {
        fill: #bbd25b;
      }

      .cls-23 {
        font-size: 20px;
      }

      .cls-17 {
        fill: #cbd963;
      }

      .cls-18 {
        fill: #2a3280;
      }
    </style>
  </defs>
  <g id="Camada_1-2" data-name="Camada 1">
    <circle class="cls-8" cx="107.11" cy="124.67" r="4.86"/>
    <circle class="cls-8" cx="132.99" cy="137.24" r="3.23"/>
    <circle class="cls-8" cx="92.68" cy="144.95" r="2.43"/>
    <g>
      <path class="cls-17" d="M122.54,160.91c4.49.89,8.94,1.77,13.36,3.01,8.91,2.5,14.37,4.96,22.01,10.16-16.58-1.98-33.41,2.41-49.57,1.88-10.97-.36-21.78-2.96-32.73-3.57-3.09-.17-6.29.24-9.31-.38,6.27-3.79,11.37-6.08,18.43-8.09,6.11-1.74,8.79-2.6,15.11-3.24.09,0,2.15-.31,2.38-.33,6.69-.62,13.67-.18,20.32.56Z"/>
      <path class="cls-10" d="M67.97,172.01c2.93.82,8.98,2.56,11.97,2.79,10.62.81,18.15,1.97,28.79,2.45,15.67.7,23.47.31,43.49-2.45,5.14-.71,0,1.57,0,1.57,0,0-2.09,2.27-2.23,2.45-15.07,0-21.83,9.94-41.35,8.48-17.89-1.34-21.35-7.57-33.31-7.57-.44-.49-2.31-1.58-2.11-1.96,1.21-2.41-7.52-3.87-5.24-5.76Z"/>
      <path class="cls-16" d="M121.24,163.25c3.93.63,7.83,1.24,11.7,2.11,7.8,1.75,12.59,3.48,19.27,7.12-14.52-1.39-29.26,1.69-43.41,1.32-9.61-.25-19.07-2.08-28.66-2.5-2.7-.12-5.5.17-8.15-.26,5.49-2.65,9.96-4.26,16.14-5.67,5.35-1.22,7.96-1.83,13.5-2.27.07,0,1.62-.21,1.82-.23,5.86-.44,11.97-.13,17.79.4Z"/>
      <path class="cls-7" d="M120,165.67c3.4.34,6.76.67,10.1,1.15,6.74.95,10.87,1.89,16.64,3.86-12.53-.75-25.26.92-37.48.72-8.3-.14-16.47-1.13-24.75-1.36-2.34-.07-4.75.09-7.04-.14,4.74-1.44,8.6-2.31,13.94-3.08,4.62-.66,6.88-.99,11.66-1.23.06,0,1.4-.12,1.57-.12,5.06-.24,10.34-.07,15.36.21Z"/>
      <path class="cls-1" d="M68.68,172.31c2.71,0,3.84-.1,6.93.08,10.95.61,21.76,3.21,32.73,3.57,16.16.53,29.66-3.58,45.77-2.13,3.62.33-8.11,2.34-5.58,5.01l-.28.28c-55.59,0-21.52.75-77.11.75-.45-.37-1.2-.27-1-.56,1.25-1.82-4.22-7-1.46-7Z"/>
      <path class="cls-4" d="M71.45,172.44c2.21.1,2.6-.06,4.16-.05,10.97.06,21.76,3.21,32.73,3.57,16.16.53,25.93-3.33,41.69-2.27,3.63.24,2.52.57,5.05,3.24l-.28.28c-55.59,0-35.03-.02-90.61-.02-.45-.37-.2-.27,0-.56,1.25-1.82,4.51-4.32,7.26-4.19Z"/>
    </g>
    <path class="cls-9" d="M109.58,27.83c-45.15,0-81.75,36.6-81.75,81.75s36.6,81.75,81.75,81.75,81.75-36.6,81.75-81.75S154.73,27.83,109.58,27.83ZM109.58,183.27c-40.7,0-73.69-32.99-73.69-73.69S68.88,35.88,109.58,35.88s73.69,32.99,73.69,73.69-32.99,73.69-73.69,73.69Z"/>
    <g>
      <path class="cls-18" d="M113.62,48.11c0,1.84-.91,5.82-1.82,4.45-1.21-1.83-2.07-5.53-2.07-5.53,0,0-.01,4.52.85,5.51,2.18,2.49-3.9-.82-4.11-5.2-.04-.87-.31-2.89,1.8-5.39,1.21-1.42,2.31-1.8,2.31-1.8,0,0,.44,1.64,1.49,2.97.86,1.09,1.53,3.01,1.53,4.99Z"/>
      <path class="cls-3" d="M112.24,99.29c0,1.54-.67,4.9-1.33,3.74-.88-1.54-1.51-4.66-1.51-4.66,0,0,0,3.8.63,4.63,1.59,2.1-2.86-.69-3.01-4.37-.03-.73-.23-2.43,1.32-4.54.88-1.2,1.69-1.51,1.69-1.51,0,0,.33,1.38,1.09,2.5.63.92,1.12,2.53,1.12,4.2Z"/>
      <path class="cls-14" d="M97.45,53.5c.59,2.02,1,6.68-.31,5.42-1.75-1.67-3.77-5.52-3.77-5.52,0,0,1.45,4.98,2.6,5.83,2.9,2.14-4.01.19-5.62-4.58-.32-.95-1.24-3.1-.01-6.45.7-1.91,1.64-2.63,1.64-2.63,0,0,.96,1.69,2.39,2.86,1.18.96,2.44,2.89,3.08,5.08Z"/>
      <path class="cls-18" d="M90.44,79.8c.59,2.02,1,6.68-.31,5.42-1.75-1.67-3.77-5.52-3.77-5.52,0,0,1.45,4.98,2.6,5.83,2.9,2.14-4.01.19-5.62-4.58-.32-.95-1.24-3.1-.01-6.45.7-1.91,1.64-2.63,1.64-2.63,0,0,.96,1.69,2.39,2.86,1.18.96,2.44,2.89,3.08,5.08Z"/>
      <path class="cls-18" d="M119.19,54.17c-.73,1.5-2.96,4.45-3.06,3.02-.14-1.91.72-5.25.72-5.25,0,0-1.8,3.7-1.58,4.81.56,2.79-2.46-2.02-.87-5.68.32-.73.92-2.48,3.42-3.8,1.42-.75,2.36-.68,2.36-.68,0,0-.33,1.5-.11,2.95.18,1.19-.1,2.99-.89,4.62Z"/>
      <path class="cls-6" d="M71.31,90.48c.59,2.02,1,6.68-.31,5.42-1.75-1.67-3.77-5.52-3.77-5.52,0,0,1.45,4.98,2.6,5.83,2.9,2.14-4.01.19-5.62-4.58-.32-.95-1.24-3.1-.01-6.45.7-1.91,1.64-2.63,1.64-2.63,0,0,.96,1.69,2.39,2.86,1.18.96,2.44,2.89,3.08,5.08Z"/>
      <path class="cls-12" d="M74.62,117.23c.59,2.02,1,6.68-.31,5.42-1.75-1.67-3.77-5.52-3.77-5.52,0,0,1.45,4.98,2.6,5.83,2.9,2.14-4.01.19-5.62-4.58-.32-.95-1.24-3.1-.01-6.45.7-1.91,1.64-2.63,1.64-2.63,0,0,.96,1.69,2.39,2.86,1.18.96,2.44,2.89,3.08,5.08Z"/>
      <path class="cls-15" d="M85.09,105.08c0,2.11-.36,6.19-1.82,5.11-2.86-2.11-2.26-9.46-2.26-9.46,0,0-2.32,3.97,1.05,9.43,1.91,3.09-3.9-.95-4.11-5.97-.04-1-.31-3.32,1.8-6.2,1.21-1.64,2.31-2.07,2.31-2.07,0,0,.61.71,1.65,2.24.86,1.26,1.37,4.63,1.37,6.91Z"/>
      <path class="cls-11" d="M102.2,73.55c0,2.11-.36,6.19-1.82,5.11-2.86-2.11-2.26-9.46-2.26-9.46,0,0-2.32,3.97,1.05,9.43,1.91,3.09-3.9-.95-4.11-5.97-.04-1-.31-3.32,1.8-6.2,1.21-1.64,2.31-2.07,2.31-2.07,0,0,.61.71,1.65,2.24.86,1.26,1.37,4.63,1.37,6.91Z"/>
      <path class="cls-2" d="M93.64,74.32c0,1.13-.19,3.32-.97,2.74-1.53-1.13-1.21-5.07-1.21-5.07,0,0-1.24,2.13.56,5.05,1.02,1.66-2.09-.51-2.2-3.2-.02-.54-.17-1.78.97-3.32.65-.88,1.24-1.11,1.24-1.11,0,0,.32.38.89,1.2.46.67.73,2.48.73,3.7Z"/>
      <path class="cls-2" d="M77.81,74.52c0,2.11-.98,6.23-1.89,4.66-1.21-2.1-1.49-4.95-1.49-4.95,0,0-.13,3.75.74,4.89,2.18,2.86-3.9-.95-4.11-5.97-.04-1-.31-3.32,1.8-6.2,1.21-1.64,2.31-2.07,2.31-2.07,0,0-.49,3.12.56,4.65.86,1.26,2.07,3.57,2.07,4.99Z"/>
      <path class="cls-15" d="M132.16,67.53c-1.63,1.34-5.44,3.21-4.79,1.5.85-2.26,2.87-4.29,2.87-4.29,0,0-2.98,2.28-3.31,3.68-.83,3.5-1.75-3.62,2-6.97.75-.67,2.37-2.35,5.93-2.55,2.03-.11,3.06.47,3.06.47,0,0-2.72,1.61-3.23,3.39-.42,1.46-1.44,3.86-2.54,4.77Z"/>
      <path class="cls-18" d="M101.4,117.03c0,2.11-.98,6.23-1.89,4.66-1.21-2.1-1.49-4.95-1.49-4.95,0,0-.13,3.75.74,4.89,2.18,2.86-3.9-.95-4.11-5.97-.04-1-.31-3.32,1.8-6.2,1.21-1.64,2.31-2.07,2.31-2.07,0,0-.49,3.12.56,4.65.86,1.26,2.07,3.57,2.07,4.99Z"/>
      <path class="cls-14" d="M77.61,109.65c.84,1.31,1.88,4.25.69,3.64-1.58-.82-2.9-2.47-2.9-2.47,0,0,1.42,2.38,2.41,2.74,2.49.9-2.8.97-4.93-2.06-.42-.6-1.52-1.93-1.36-4.56.09-1.5.61-2.2.61-2.2,0,0,.94,2.12,2.2,2.65,1.03.43,2.7,1.38,3.27,2.26Z"/>
      <path class="cls-6" d="M81.95,123.44c.34,1.16.48,3.58-.28,2.87-1-.96-1.62-2.47-1.62-2.47,0,0,.54,2.08,1.2,2.57,1.66,1.22-2.3.12-3.23-2.61-.19-.54-.71-1.77-.02-3.7.4-1.1.93-1.51.93-1.51,0,0,.24,1.79,1.07,2.46.68.55,1.72,1.62,1.95,2.4Z"/>
      <path class="cls-9" d="M78.23,95.53c.34,1.16.48,3.58-.28,2.87-1-.96-1.62-2.47-1.62-2.47,0,0,.54,2.08,1.2,2.57,1.66,1.22-2.3.12-3.23-2.61-.19-.54-.71-1.77-.02-3.7.4-1.1.93-1.51.93-1.51,0,0,.24,1.79,1.07,2.46.68.55,1.72,1.62,1.95,2.4Z"/>
      <path class="cls-18" d="M93.99,63.85c.34,1.16.48,3.58-.28,2.87-1-.96-1.62-2.47-1.62-2.47,0,0,.54,2.08,1.2,2.57,1.66,1.22-2.3.12-3.23-2.61-.19-.54-.71-1.77-.02-3.7.4-1.1.93-1.51.93-1.51,0,0,.24,1.79,1.07,2.46.68.55,1.72,1.62,1.95,2.4Z"/>
      <path class="cls-18" d="M96.28,91.83c.34,1.16.48,3.58-.28,2.87-1-.96-1.62-2.47-1.62-2.47,0,0,.54,2.08,1.2,2.57,1.66,1.22-2.3.12-3.23-2.61-.19-.54-.71-1.77-.02-3.7.4-1.1.93-1.51.93-1.51,0,0,.24,1.79,1.07,2.46.68.55,1.72,1.62,1.95,2.4Z"/>
      <path class="cls-11" d="M66.96,105.33c.85.86,2.13,2.92,1.12,2.65-1.34-.36-2.61-1.4-2.61-1.4,0,0,1.47,1.57,2.28,1.69,2.04.28-1.97,1.2-4.08-.76-.42-.39-1.47-1.22-1.78-3.24-.17-1.15.1-1.77.1-1.77,0,0,1.06,1.46,2.11,1.66.86.16,2.28.61,2.86,1.18Z"/>
      <path class="cls-9" d="M104.79,96.28c0,2.11-.98,6.23-1.89,4.66-1.21-2.1-1.49-4.95-1.49-4.95,0,0-.13,3.75.74,4.89,2.18,2.86-3.9-.95-4.11-5.97-.04-1-.31-3.32,1.8-6.2,1.21-1.64,2.31-2.07,2.31-2.07,0,0-.49,3.12.56,4.65.86,1.26,2.07,3.57,2.07,4.99Z"/>
      <path class="cls-14" d="M121.03,55.33c-.67,2.29-1.14,7.56.35,6.14,1.98-1.9,4.27-6.25,4.27-6.25,0,0-1.64,5.64-2.94,6.61-3.28,2.42,4.54.21,6.36-5.19.36-1.07,1.4-3.51.01-7.31-.79-2.16-1.85-2.98-1.85-2.98,0,0-1.08,1.91-2.71,3.24-1.34,1.09-2.76,3.27-3.49,5.75Z"/>
      <path class="cls-3" d="M128.03,79.29c-.59,2.02-1,6.68.31,5.42,1.75-1.67,3.77-5.52,3.77-5.52,0,0-1.45,4.98-2.6,5.83-2.9,2.14,4.01.19,5.62-4.58.32-.95,1.24-3.1.01-6.45-.7-1.91-1.64-2.63-1.64-2.63,0,0-.96,1.69-2.39,2.86-1.18.96-2.44,2.89-3.08,5.08Z"/>
      <path class="cls-12" d="M149.32,96.45c-.59,2.02-1,6.68.31,5.42,1.75-1.67,3.77-5.52,3.77-5.52,0,0-1.45,4.98-2.6,5.83-2.9,2.14,4.01.19,5.62-4.58.32-.95,1.24-3.1.01-6.45-.7-1.91-1.64-2.63-1.64-2.63,0,0-.96,1.69-2.39,2.86-1.18.96-2.44,2.89-3.08,5.08Z"/>
      <path class="cls-11" d="M142.68,115.95c-1.29,1.67-3.37,5.85-1.69,5.16,2.24-.92,5.52-3.77,5.52-3.77,0,0-3.16,4.11-4.55,4.49-3.47.93,3.67,1.64,6.9-2.22.64-.77,2.28-2.44,2.36-6,.05-2.03-.57-3.05-.57-3.05,0,0-1.51,1.22-3.27,1.79-1.45.47-3.33,1.8-4.72,3.6Z"/>
      <path class="cls-3" d="M133.38,96.91c0,2.11.36,6.19,1.82,5.11,2.86-2.11,2.26-9.46,2.26-9.46,0,0,2.32,3.97-1.05,9.43-1.91,3.09,3.9-.95,4.11-5.97.04-1,.31-3.32-1.8-6.2-1.21-1.64-2.31-2.07-2.31-2.07,0,0-.61.71-1.65,2.24-.86,1.26-1.37,4.63-1.37,6.91Z"/>
      <path class="cls-11" d="M86.48,98.48c.91,1.9,2.98,5.44,3.84,3.84,1.67-3.13-2.03-9.51-2.03-9.51,0,0,3.8,2.59,3.11,8.96-.39,3.61,3.12-2.53,1.14-7.16-.39-.92-1.14-3.14-4.29-4.82-1.79-.96-2.97-.87-2.97-.87,0,0-.24.9-.53,2.74-.24,1.5.76,4.77,1.73,6.83Z"/>
      <path class="cls-14" d="M84.41,124.36c.91,1.9,2.98,5.44,3.84,3.84,1.67-3.13-2.03-9.51-2.03-9.51,0,0,3.8,2.59,3.11,8.96-.39,3.61,3.12-2.53,1.14-7.16-.39-.92-1.14-3.14-4.29-4.82-1.79-.96-2.97-.87-2.97-.87,0,0-.24.9-.53,2.74-.24,1.5.76,4.77,1.73,6.83Z"/>
      <path class="cls-14" d="M116.27,73.04c0,2.11.36,6.19,1.82,5.11,2.86-2.11,2.26-9.46,2.26-9.46,0,0,2.32,3.97-1.05,9.43-1.91,3.09,3.9-.95,4.11-5.97.04-1,.31-3.32-1.8-6.2-1.21-1.64-2.31-2.07-2.31-2.07,0,0-.61.71-1.65,2.24-.86,1.26-1.37,4.63-1.37,6.91Z"/>
      <path class="cls-18" d="M140.66,74.01c0,2.11.98,6.23,1.89,4.66,1.21-2.1,1.49-4.95,1.49-4.95,0,0,.13,3.75-.74,4.89-2.18,2.86,3.9-.95,4.11-5.97.04-1,.31-3.32-1.8-6.2-1.21-1.64-2.31-2.07-2.31-2.07,0,0,.49,3.12-.56,4.65-.86,1.26-2.07,3.57-2.07,4.99Z"/>
      <path class="cls-11" d="M105.69,74.18c0,2.52,1.17,7.44,2.25,5.56,1.44-2.5,1.78-5.91,1.78-5.91,0,0,.16,4.48-.88,5.84-2.6,3.42,4.66-1.13,4.91-7.14.05-1.19.38-3.97-2.15-7.4-1.44-1.96-2.76-2.47-2.76-2.47,0,0,.58,3.72-.67,5.55-1.03,1.5-2.47,4.26-2.47,5.95Z"/>
      <path class="cls-5" d="M94.85,85.1c.77,1.14,2.8,3.01,2.72,1.83-.11-1.57-1-3.21-1-3.21,0,0,1.44,1.98,1.38,2.91-.13,2.34,1.76-1.93.04-4.73-.34-.56-1.04-1.91-3.23-2.69-1.25-.45-2-.27-2-.27,0,0,1.4,1.51,1.39,2.72,0,.99.18,2.68.7,3.45Z"/>
      <path class="cls-3" d="M102.5,110.72c.77,1.14,2.8,3.01,2.72,1.83-.11-1.57-1-3.21-1-3.21,0,0,1.44,1.98,1.38,2.91-.13,2.34,1.76-1.93.04-4.73-.34-.56-1.04-1.91-3.23-2.69-1.25-.45-2-.27-2-.27,0,0,1.4,1.51,1.39,2.72,0,.99.18,2.68.7,3.45Z"/>
      <path class="cls-18" d="M102.51,63.51c.77,1.14,2.8,3.01,2.72,1.83-.11-1.57-1-3.21-1-3.21,0,0,1.44,1.98,1.38,2.91-.13,2.34,1.76-1.93.04-4.73-.34-.56-1.04-1.91-3.23-2.69-1.25-.45-2-.27-2-.27,0,0,1.4,1.51,1.39,2.72,0,.99.18,2.68.7,3.45Z"/>
      <path class="cls-3" d="M103.9,86.61c.77,1.14,2.8,3.01,2.72,1.83-.11-1.57-1-3.21-1-3.21,0,0,1.44,1.98,1.38,2.91-.13,2.34,1.76-1.93.04-4.73-.34-.56-1.04-1.91-3.23-2.69-1.25-.45-2-.27-2-.27,0,0,1.4,1.51,1.39,2.72,0,.99.18,2.68.7,3.45Z"/>
      <path class="cls-2" d="M135.75,66.63c-.7,1.18-1.53,3.82-.49,3.24,1.37-.77,2.48-2.28,2.48-2.28,0,0-1.18,2.15-2.04,2.5-2.17.88,2.5.77,4.29-1.98.36-.55,1.28-1.76,1.05-4.07-.13-1.32-.61-1.93-.61-1.93,0,0-.77,1.91-1.86,2.42-.9.42-2.35,1.31-2.82,2.11Z"/>
      <path class="cls-2" d="M110.51,60.27c.77,1.14,2.8,3.01,2.72,1.83-.11-1.57-1-3.21-1-3.21,0,0,1.44,1.98,1.38,2.91-.13,2.34,1.76-1.93.04-4.73-.34-.56-1.04-1.91-3.23-2.69-1.25-.45-2-.27-2-.27,0,0,1.4,1.51,1.39,2.72,0,.99.18,2.68.7,3.45Z"/>
      <path class="cls-9" d="M114.22,88.64c-.77,1.14-2.8,3.01-2.72,1.83.11-1.57,1-3.21,1-3.21,0,0-1.44,1.98-1.38,2.91.13,2.34-1.76-1.93-.04-4.73.34-.56,1.04-1.91,3.23-2.69,1.25-.45,2-.27,2-.27,0,0-1.4,1.51-1.39,2.72,0,.99-.18,2.68-.7,3.45Z"/>
      <path class="cls-3" d="M96.77,104.22c-.55.82-2.02,2.17-1.96,1.32.08-1.14.72-2.32.72-2.32,0,0-1.04,1.43-1,2.1.1,1.69-1.27-1.4-.03-3.41.25-.4.75-1.38,2.33-1.94.9-.32,1.45-.2,1.45-.2,0,0-1.01,1.09-1,1.96,0,.72-.13,1.94-.5,2.49Z"/>
      <path class="cls-18" d="M83.21,66.09c1.14,1.68,4.14,4.44,4.01,2.7-.17-2.32-1.48-4.74-1.48-4.74,0,0,2.13,2.92,2.05,4.3-.19,3.46,2.6-2.86.05-6.98-.51-.82-1.54-2.82-4.77-3.97-1.84-.66-2.96-.4-2.96-.4,0,0,2.07,2.22,2.05,4.01,0,1.46.27,3.96,1.04,5.09Z"/>
      <path class="cls-15" d="M71.57,86.75c1.2,1.14,4.07,2.81,3.66,1.44-.54-1.82-2.01-3.51-2.01-3.51,0,0,2.2,1.95,2.38,3.06.45,2.78,1.57-2.73-1.18-5.56-.55-.56-1.72-1.97-4.49-2.32-1.58-.2-2.42.2-2.42.2,0,0,2.03,1.41,2.33,2.83.25,1.17.91,3.1,1.71,3.87Z"/>
      <path class="cls-18" d="M67.91,102.73c1.63.26,4.94,0,3.84-.89-1.48-1.19-3.65-1.76-3.65-1.76,0,0,2.92.36,3.7,1.17,1.95,2.04-.25-3.14-4.12-3.91-.77-.15-2.53-.65-5.02.63-1.41.73-1.88,1.54-1.88,1.54,0,0,2.47,0,3.53,1.01.87.82,2.51,2.04,3.61,2.21Z"/>
      <path class="cls-9" d="M117.62,107.84c0,2.11.98,6.23,1.89,4.66,1.21-2.1,1.49-4.95,1.49-4.95,0,0,.13,3.75-.74,4.89-2.18,2.86,3.9-.95,4.11-5.97.04-1,.31-3.32-1.8-6.2-1.21-1.64-2.31-2.07-2.31-2.07,0,0,.49,3.12-.56,4.65-.86,1.26-2.07,3.57-2.07,4.99Z"/>
      <path class="cls-12" d="M87.41,111.68c0,1.52.71,4.5,1.36,3.36.87-1.51,1.07-3.57,1.07-3.57,0,0,.09,2.71-.53,3.53-1.57,2.07,2.82-.68,2.96-4.31.03-.72.23-2.4-1.3-4.47-.87-1.18-1.67-1.49-1.67-1.49,0,0,.35,2.25-.41,3.35-.62.91-1.49,2.57-1.49,3.6Z"/>
      <path class="cls-5" d="M113.68,95.15c0,1.97.98,5.83,1.89,4.36,1.21-1.96,1.49-4.63,1.49-4.63,0,0,.13,3.51-.74,4.58-2.18,2.68,3.9-.89,4.11-5.59.04-.94.31-3.11-1.8-5.8-1.21-1.53-2.31-1.93-2.31-1.93,0,0,.49,2.92-.56,4.35-.86,1.17-2.07,3.34-2.07,4.66Z"/>
      <path class="cls-15" d="M77.94,68.09c.41,1.35,1.83,3.79,2.1,2.61.36-1.57,0-3.44,0-3.44,0,0,.81,2.37.47,3.26-.84,2.25,2.31-1.36,1.47-4.6-.17-.65-.44-2.18-2.34-3.6-1.08-.81-1.87-.87-1.87-.87,0,0,.91,1.89.54,3.07-.31.97-.63,2.67-.36,3.58Z"/>
      <path class="cls-9" d="M78.43,87.71c.45,1.48,2.01,4.17,2.31,2.87.4-1.73,0-3.79,0-3.79,0,0,.89,2.61.52,3.59-.92,2.47,2.54-1.49,1.62-5.07-.18-.71-.48-2.4-2.58-3.97-1.19-.89-2.06-.96-2.06-.96,0,0,1,2.08.59,3.38-.34,1.06-.7,2.94-.39,3.94Z"/>
      <path class="cls-11" d="M141.99,108.33c-.84,1.31-1.88,4.25-.69,3.64,1.58-.82,2.9-2.47,2.9-2.47,0,0-1.42,2.38-2.41,2.74-2.49.9,2.8.97,4.93-2.06.42-.6,1.52-1.93,1.36-4.56-.09-1.5-.61-2.2-.61-2.2,0,0-.94,2.12-2.2,2.65-1.03.43-2.7,1.38-3.27,2.26Z"/>
      <path class="cls-15" d="M134.53,117.27c-.34,1.16-.48,3.58.28,2.87,1-.96,1.62-2.47,1.62-2.47,0,0-.54,2.08-1.2,2.57-1.66,1.22,2.3.12,3.23-2.61.19-.54.71-1.77.02-3.7-.4-1.1-.93-1.51-.93-1.51,0,0-.24,1.79-1.07,2.46-.68.55-1.72,1.62-1.95,2.4Z"/>
      <path class="cls-18" d="M141.51,95.49c-.34,1.16-.48,3.58.28,2.87,1-.96,1.62-2.47,1.62-2.47,0,0-.54,2.08-1.2,2.57-1.66,1.22,2.3.12,3.23-2.61.19-.54.71-1.77.02-3.7-.4-1.1-.93-1.51-.93-1.51,0,0-.24,1.79-1.07,2.46-.68.55-1.72,1.62-1.95,2.4Z"/>
      <path class="cls-3" d="M123.46,91.79c-.34,1.16-.48,3.58.28,2.87,1-.96,1.62-2.47,1.62-2.47,0,0-.54,2.08-1.2,2.57-1.66,1.22,2.3.12,3.23-2.61.19-.54.71-1.77.02-3.7-.4-1.1-.93-1.51-.93-1.51,0,0-.24,1.79-1.07,2.46-.68.55-1.72,1.62-1.95,2.4Z"/>
      <path class="cls-18" d="M152.78,105.29c-.85.86-2.13,2.92-1.12,2.65,1.34-.36,2.61-1.4,2.61-1.4,0,0-1.47,1.57-2.28,1.69-2.04.28,1.97,1.2,4.08-.76.42-.39,1.47-1.22,1.78-3.24.17-1.15-.1-1.77-.1-1.77,0,0-1.06,1.46-2.11,1.66-.86.16-2.28.61-2.86,1.18Z"/>
      <path class="cls-11" d="M124.88,85.06c-.77,1.14-2.8,3.01-2.72,1.83.11-1.57,1-3.21,1-3.21,0,0-1.44,1.98-1.38,2.91.13,2.34-1.76-1.93-.04-4.73.34-.56,1.04-1.91,3.23-2.69,1.25-.45,2-.27,2-.27,0,0-1.4,1.51-1.39,2.72,0,.99-.18,2.68-.7,3.45Z"/>
      <path class="cls-15" d="M127.11,100.57c.55.82,2.02,2.17,1.96,1.32-.08-1.14-.72-2.32-.72-2.32,0,0,1.04,1.43,1,2.1-.1,1.69,1.27-1.4.03-3.41-.25-.4-.75-1.38-2.33-1.94-.9-.32-1.45-.2-1.45-.2,0,0,1.01,1.09,1,1.96,0,.72.13,1.94.5,2.49Z"/>
      <path class="cls-6" d="M148.17,86.71c-1.2,1.14-4.07,2.81-3.66,1.44.54-1.82,2.01-3.51,2.01-3.51,0,0-2.2,1.95-2.38,3.06-.45,2.78-1.57-2.73,1.18-5.56.55-.56,1.72-1.97,4.49-2.32,1.58-.2,2.42.2,2.42.2,0,0-2.03,1.41-2.33,2.83-.25,1.17-.91,3.1-1.71,3.87Z"/>
      <path class="cls-14" d="M137.72,109.98c-1.37.92-4.48,2.08-3.85.81.84-1.7,2.57-3.13,2.57-3.13,0,0-2.5,1.55-2.86,2.61-.91,2.67-1.09-2.95,2.1-5.28.63-.46,2.03-1.66,4.82-1.53,1.59.07,2.35.6,2.35.6,0,0-2.24,1.04-2.78,2.4-.44,1.11-1.42,2.9-2.34,3.52Z"/>
      <path class="cls-6" d="M131.14,114.47c0,1.52-.71,4.5-1.36,3.36-.87-1.51-1.07-3.57-1.07-3.57,0,0-.09,2.71.53,3.53,1.57,2.07-2.82-.68-2.96-4.31-.03-.72-.23-2.4,1.3-4.47.87-1.18,1.67-1.49,1.67-1.49,0,0-.35,2.25.41,3.35.62.91,1.49,2.57,1.49,3.6Z"/>
      <path class="cls-15" d="M140.25,84.48c-.27.9-1.23,2.55-1.41,1.75-.25-1.06,0-2.31,0-2.31,0,0-.54,1.59-.32,2.19.56,1.51-1.55-.91-.99-3.1.11-.43.3-1.47,1.58-2.42.73-.55,1.26-.59,1.26-.59,0,0-.61,1.27-.36,2.07.21.65.42,1.8.24,2.41Z"/>
      <path class="cls-18" d="M101.04,51.35c.94,1.37,3.41,3.6,3.3,2.18-.15-1.9-1.24-3.87-1.24-3.87,0,0,1.76,2.37,1.7,3.5-.14,2.83,2.11-2.35,0-5.7-.42-.67-1.28-2.29-3.93-3.21-1.51-.52-2.42-.31-2.42-.31,0,0,1.7,1.8,1.71,3.26,0,1.2.25,3.23.88,4.15Z"/>
      <path class="cls-13" d="M74.07,130.19c-1.01.96-2.61.92-3.57-.08-.96-1.01-.92-2.61.08-3.57s4.51-.48,5.82-2.06c.89-1.08-1.32,4.75-2.33,5.71Z"/>
      <path class="cls-13" d="M78.84,131.45c-.1.97-.96,1.68-1.93,1.58s-1.68-.96-1.58-1.93,2.17-2.31,2.14-3.74c-.02-.97,1.46,3.12,1.37,4.09Z"/>
      <path class="cls-13" d="M82.52,131.26c.3.66,0,1.44-.66,1.74s-1.44,0-1.74-.66.55-2.31,0-3.22c-.38-.62,2.11,1.48,2.41,2.14Z"/>
    </g>
    <path class="cls-3" d="M125.48,106.29v.17c-.16-.03-.5.06-.5-.08l.5-.08Z"/>
    <path class="cls-13" d="M110.12,130.29c9.39-3.55,5.43-14.39-1.67-22.72,6.7,4.37,10.66,10.1,12.87,16.85,2.1,6.38,2.39,12.86.44,20.54-.81,3.18-2.56,9.01-3.35,11.78-2.5,8.72-6.01,15.48-6.57,15.31-.05-.01-.07-.08-.07-.11,1.85-14.15,2.66-19.07,1.36-22.43-.27-.69-13.43,22.09-12.8,17.21.83-6.43,6.66-16.28,6.75-26.84.04-5.13-12.1-.7-19.21,0-.6.06-.77-.77-.2-.96"/>
    <path class="cls-13" d="M93.9,147.85c4.88-1.27,3.48-6.92.38-11.48,3.12,2.55,4.79,5.64,5.54,9.15.71,3.31.51,6.58-.88,10.32-.57,1.55-1.76,4.38-2.31,5.73-1.71,4.24-3.83,7.44-4.1,7.32-.02,0-.03-.05-.03-.06,1.68-6.99,2.35-9.42,1.88-11.17-.1-.36-7.89,10.35-7.32,7.93.76-3.18,4.2-7.8,4.8-13.09.29-2.57-6.01-1.01-9.6-1.04-.3,0-.34-.43-.05-.49"/>
    <path class="cls-13" d="M146.09,144.81c.37.14.24.69-.16.64-4.7-.64-12.88.6-12.99,4.02-.22,7.04,4.51,12.48,4.89,16.79.29,3.27-8.28-11.86-8.48-11.41-.95,2.21-1.88,4.72-1.03,14.2,0,.02-.7.68-.73.69-.38.1-1.81-4.51-2.65-10.49-.41-2.91-.59-5.83-.78-8.01-.51-6.1-.73-9.47.83-13.67,1.65-4.44,4.43-8.16,9-10.9-4.94,5.37-7.71,13.26-1.56,15.86"/>
    <text class="cls-19" transform="translate(47.9 176.4) rotate(-134.61)"><tspan x="0" y="0"> </tspan></text>
    <text class="cls-19" transform="translate(44.37 172.78) rotate(-131.37)"><tspan x="0" y="0"> </tspan></text>
    <text class="cls-19" transform="translate(41.05 168.97) rotate(-128.11)"><tspan x="0" y="0"> </tspan></text>
    <text class="cls-19" transform="translate(37.97 164.98) rotate(-124.84)"><tspan x="0" y="0"> </tspan></text>
    <text class="cls-19" transform="translate(35.1 160.8) rotate(-121.56)"><tspan x="0" y="0"> </tspan></text>
    <text class="cls-19" transform="translate(32.49 156.5) rotate(-118.3)"><tspan x="0" y="0"> </tspan></text>
    <text class="cls-19" transform="translate(30.11 152.02) rotate(-115.03)"><tspan x="0" y="0"> </tspan></text>
    <text class="cls-19" transform="translate(28 147.43) rotate(-111.78)"><tspan x="0" y="0"> </tspan></text>
    <text class="cls-19" transform="translate(26.15 142.72) rotate(-108.54)"><tspan x="0" y="0"> </tspan></text>
    <text class="cls-19" transform="translate(24.57 137.92) rotate(-105.33)"><tspan x="0" y="0"> </tspan></text>
    <text class="cls-19" transform="translate(23.26 133.03) rotate(-102.11)"><tspan x="0" y="0"> </tspan></text>
    <text class="cls-19" transform="translate(22.23 128.08) rotate(-98.92)"><tspan x="0" y="0"> </tspan></text>
    <text class="cls-20" transform="translate(21.48 123.08) rotate(-95.88)"><tspan x="0" y="0"> </tspan></text>
    <text class="cls-20" transform="translate(21.05 118.69) rotate(-93.1)"><tspan x="0" y="0"> </tspan></text>
    <text class="cls-20" transform="translate(20.83 114.25) rotate(-90.3)"><tspan x="0" y="0"> </tspan></text>
    <text class="cls-20" transform="translate(20.83 109.85) rotate(-87.53)"><tspan x="0" y="0"> </tspan></text>
    <text class="cls-21" transform="translate(21.05 105.41) rotate(-84.93)"><tspan x="0" y="0">.</tspan></text>
    <text class="cls-21" transform="translate(21.37 101.96) rotate(-82.84)"><tspan x="0" y="0"> </tspan></text>
    <text class="cls-21" transform="translate(21.77 98.85) rotate(-80.85)"><tspan x="0" y="0"> </tspan></text>
    <text class="cls-21" transform="translate(22.29 95.72) rotate(-78.83)"><tspan x="0" y="0"> </tspan></text>
    <text class="cls-21" transform="translate(22.91 92.64) rotate(-76.82)"><tspan x="0" y="0"> </tspan></text>
    <text class="cls-21" transform="translate(23.65 89.54) rotate(-74.78)"><tspan x="0" y="0"> </tspan></text>
    <text class="cls-21" transform="translate(24.49 86.5) rotate(-72.75)"><tspan x="0" y="0"> </tspan></text>
    <text class="cls-21" transform="translate(25.43 83.49) rotate(-70.72)"><tspan x="0" y="0"> </tspan></text>
    <text class="cls-21" transform="translate(26.49 80.51) rotate(-68.67)"><tspan x="0" y="0"> </tspan></text>
    <text class="cls-21" transform="translate(27.64 77.59) rotate(-66.63)"><tspan x="0" y="0"> </tspan></text>
    <text class="cls-21" transform="translate(28.91 74.68) rotate(-64.55)"><tspan x="0" y="0"> </tspan></text>
    <text class="cls-21" transform="translate(30.28 71.83) rotate(-62.49)"><tspan x="0" y="0"> </tspan></text>
    <text class="cls-21" transform="translate(31.74 69.06) rotate(-60.43)"><tspan x="0" y="0"> </tspan></text>
    <text class="cls-21" transform="translate(33.31 66.3) rotate(-58.35)"><tspan x="0" y="0"> </tspan></text>
    <text class="cls-21" transform="translate(34.98 63.62) rotate(-56.27)"><tspan x="0" y="0"> </tspan></text>
    <text class="cls-21" transform="translate(36.73 61.02) rotate(-54.2)"><tspan x="0" y="0"> </tspan></text>
    <text class="cls-21" transform="translate(38.59 58.47) rotate(-52.13)"><tspan x="0" y="0"> </tspan></text>
    <text class="cls-21" transform="translate(40.54 55.97) rotate(-50.04)"><tspan x="0" y="0"> </tspan></text>
    <text class="cls-21" transform="translate(42.58 53.56) rotate(-47.98)"><tspan x="0" y="0"> </tspan></text>
    <text class="cls-23" transform="translate(44.45 51.17) rotate(-42.66)"><tspan x="0" y="0">R</tspan></text>
    <text class="cls-23" transform="translate(54.61 41.79) rotate(-32.83)"><tspan x="0" y="0">O</tspan></text>
    <text class="cls-23" transform="translate(68.36 33.32) rotate(-24.47)"><tspan x="0" y="0">S</tspan></text>
    <text class="cls-23" transform="translate(76.91 29.31) rotate(-16.58)"><tspan x="0" y="0">A</tspan></text>
    <text class="cls-23" transform="translate(91.27 25.09) rotate(-6.77)"><tspan x="0" y="0">N</tspan></text>
    <text class="cls-23" transform="translate(107.17 23.43) rotate(2.16)"><tspan x="0" y="0">E</tspan></text>
    <text class="cls-23" transform="translate(119.68 24.12) rotate(8.08)"><tspan x="0" y="0"> </tspan></text>
    <text class="cls-23" transform="translate(125.88 24.86) rotate(14.4)"><tspan x="0" y="0">C</tspan></text>
    <text class="cls-23" transform="translate(139.02 28.28) rotate(23.5)"><tspan x="0" y="0">U</tspan></text>
    <text class="cls-23" transform="translate(152.43 34.24) rotate(32.84)"><tspan x="0" y="0">B</tspan></text>
    <text class="cls-23" transform="translate(164.02 41.89) rotate(41.5)"><tspan x="0" y="0">E</tspan></text>
    <text class="cls-23" transform="translate(173.33 50.16) rotate(50.12)"><tspan x="0" y="0">R</tspan></text>
    <text class="cls-23" transform="translate(182.03 61.03) rotate(56.75)"><tspan x="0" y="0"> </tspan></text>
    <text class="cls-23" transform="translate(185.45 66.34) rotate(60.9)"><tspan x="0" y="0"> </tspan></text>
    <text class="cls-23" transform="translate(188.49 71.89) rotate(65.04)"><tspan x="0" y="0"> </tspan></text>
    <text class="cls-23" transform="translate(191.1 77.63) rotate(69.14)"><tspan x="0" y="0"> </tspan></text>
    <text class="cls-23" transform="translate(193.31 83.54) rotate(73.21)"><tspan x="0" y="0"> </tspan></text>
    <text class="cls-23" transform="translate(195.09 89.61) rotate(77.25)"><tspan x="0" y="0"> </tspan></text>
    <text class="cls-21" transform="translate(196.42 95.82) rotate(80.59)"><tspan x="0" y="0">.</tspan></text>
    <text class="cls-22" transform="translate(14.63 136.47) rotate(69.95) scale(.99 1)"><tspan x="0" y="0">D</tspan></text>
    <text class="cls-22" transform="translate(19.67 149.45) rotate(64.11) scale(.99 1)"><tspan x="0" y="0">i</tspan></text>
    <text class="cls-22" transform="translate(22.49 155.17) rotate(59.99) scale(.99 1)"><tspan x="0" y="0">r</tspan></text>
    <text class="cls-22" transform="translate(26.68 162.35) rotate(54.73) scale(.99 1)"><tspan x="0" y="0">e</tspan></text>
    <text class="cls-22" transform="translate(32.74 170.68) rotate(49.49) scale(.99 1)"><tspan x="0" y="0">t</tspan></text>
    <text class="cls-22" transform="translate(38.15 176.97) rotate(44.1) scale(.99 1)"><tspan x="0" y="0">o</tspan></text>
    <text class="cls-22" transform="translate(46.01 184.37) rotate(38.67) scale(.99 1)"><tspan x="0" y="0">r</tspan></text>
    <text class="cls-22" transform="translate(52.55 189.6) rotate(32.89) scale(.99 1)"><tspan x="0" y="0">a</tspan></text>
    <text class="cls-22" transform="translate(62.55 195.81) rotate(27.71) scale(.99 1)"><tspan x="0" y="0"> </tspan></text>
    <text class="cls-22" transform="translate(67.94 198.69) rotate(22.46) scale(.99 1)"><tspan x="0" y="0">d</tspan></text>
    <text class="cls-22" transform="translate(79.08 203.12) rotate(15.8) scale(.99 1)"><tspan x="0" y="0">e</tspan></text>
    <text class="cls-22" transform="translate(89.01 205.75) rotate(10.91) scale(.99 1)"><tspan x="0" y="0"> </tspan></text>
    <text class="cls-22" transform="translate(95.03 206.98) rotate(5.29) scale(.99 1)"><tspan x="0" y="0">B</tspan></text>
    <text class="cls-22" transform="translate(107.76 207.91) rotate(-.97) scale(.99 1)"><tspan x="0" y="0">i</tspan></text>
    <text class="cls-22" transform="translate(114.17 207.85) rotate(-5.58) scale(.99 1)"><tspan x="0" y="0">o</tspan></text>
    <text class="cls-22" transform="translate(124.85 206.62) rotate(-10.62) scale(.99 1)"><tspan x="0" y="0"> </tspan></text>
    <text class="cls-22" transform="translate(130.76 205.5) rotate(-15.09) scale(.99 1)"><tspan x="0" y="0">-</tspan></text>
    <text class="cls-22" transform="translate(139.37 203.05) rotate(-19.55) scale(.99 1)"><tspan x="0" y="0"> </tspan></text>
    <text class="cls-22" transform="translate(145.08 201.04) rotate(-24.44) scale(.99 1)"><tspan x="0" y="0">2</tspan></text>
    <text class="cls-22" transform="translate(154.88 196.5) rotate(-31.28) scale(.99 1)"><tspan x="0" y="0">0</tspan></text>
    <text class="cls-22" transform="translate(165.6 189.78) rotate(-38) scale(.99 1)"><tspan x="0" y="0">2</tspan></text>
    <text class="cls-22" transform="translate(173.96 183.1) rotate(-44.02) scale(.99 1)"><tspan x="0" y="0">5</tspan></text>
    <text class="cls-22" transform="translate(181.36 175.78) rotate(-49.51) scale(.99 1)"><tspan x="0" y="0">-</tspan></text>
    <text class="cls-22" transform="translate(187.21 168.83) rotate(-55.07) scale(.99 1)"><tspan x="0" y="0">2</tspan></text>
    <text class="cls-22" transform="translate(193.32 159.97) rotate(-61.68) scale(.99 1)"><tspan x="0" y="0">0</tspan></text>
    <text class="cls-22" transform="translate(199.17 148.77) rotate(-68.32) scale(.99 1)"><tspan x="0" y="0">2</tspan></text>
    <text class="cls-22" transform="translate(203.05 138.76) rotate(-74.68) scale(.99 1)"><tspan x="0" y="0">9</tspan></text>
    <circle class="cls-24" cx="109.58" cy="109.58" r="109.24"/>
  </g>
</svg>