<?xml version="1.0" encoding="UTF-8"?>
<svg id="Camada_2" data-name="Camada 2" xmlns="http://www.w3.org/2000/svg" viewBox="0 0 124.13 175.77">
  <defs>
    <style>
      .cls-1 {
        fill: #076b30;
      }

      .cls-1, .cls-2, .cls-3, .cls-4, .cls-5, .cls-6, .cls-7, .cls-8, .cls-9, .cls-10, .cls-11, .cls-12, .cls-13, .cls-14, .cls-15, .cls-16, .cls-17 {
        stroke-width: 0px;
      }

      .cls-2 {
        fill: #3bbff0;
      }

      .cls-3 {
        fill: #95c11f;
      }

      .cls-4 {
        fill: #019539;
      }

      .cls-5 {
        fill: #d49007;
      }

      .cls-6 {
        fill: #8a2512;
      }

      .cls-7 {
        fill: #abcc5d;
      }

      .cls-8 {
        fill: #b7cd00;
      }

      .cls-9 {
        fill: #113e1e;
      }

      .cls-10 {
        fill: #038b38;
      }

      .cls-11 {
        fill: #724494;
      }

      .cls-12 {
        fill: #0077b3;
        fill-rule: evenodd;
      }

      .cls-13 {
        fill: #00a19a;
      }

      .cls-14 {
        fill: #d43116;
      }

      .cls-15 {
        fill: #bbd25b;
      }

      .cls-16 {
        fill: #cbd963;
      }

      .cls-17 {
        fill: #2a3280;
      }
    </style>
  </defs>
  <g id="Camada_1-2" data-name="Camada 1">
    <g>
      <path class="cls-2" d="M67.3,10.15c0,2.34-1.16,7.41-2.32,5.67-1.54-2.32-2.63-7.05-2.63-7.05,0,0-.02,5.75,1.09,7.02,2.77,3.17-4.97-1.05-5.23-6.62-.05-1.11-.4-3.68,2.29-6.87,1.54-1.81,2.94-2.29,2.94-2.29,0,0,.57,2.09,1.9,3.79,1.1,1.39,1.95,3.83,1.95,6.36Z"/>
      <path class="cls-3" d="M65.54,75.33c0,1.97-.85,6.24-1.7,4.77-1.12-1.96-1.93-5.93-1.93-5.93,0,0-.01,4.84.8,5.9,2.03,2.67-3.64-.88-3.83-5.57-.04-.93-.29-3.1,1.68-5.78,1.12-1.53,2.15-1.93,2.15-1.93,0,0,.41,1.76,1.39,3.19.8,1.17,1.43,3.23,1.43,5.35Z"/>
      <path class="cls-13" d="M46.71,17.02c.75,2.58,1.28,8.5-.39,6.9-2.23-2.13-4.8-7.03-4.8-7.03,0,0,1.84,6.35,3.31,7.43,3.69,2.72-5.11.24-7.16-5.83-.41-1.21-1.57-3.95-.02-8.22.89-2.43,2.09-3.35,2.09-3.35,0,0,1.22,2.15,3.05,3.64,1.5,1.23,3.11,3.68,3.92,6.46Z"/>
      <path class="cls-17" d="M37.78,50.51c.75,2.58,1.28,8.5-.39,6.9-2.23-2.13-4.8-7.03-4.8-7.03,0,0,1.84,6.35,3.31,7.43,3.69,2.72-5.11.24-7.16-5.83-.41-1.21-1.57-3.95-.02-8.22.89-2.43,2.09-3.35,2.09-3.35,0,0,1.22,2.15,3.05,3.64,1.5,1.23,3.11,3.68,3.92,6.46Z"/>
      <path class="cls-17" d="M74.4,17.87c-.93,1.92-3.77,5.67-3.9,3.84-.17-2.43.92-6.68.92-6.68,0,0-2.29,4.71-2.01,6.12.72,3.56-3.13-2.58-1.1-7.23.4-.93,1.17-3.16,4.36-4.83,1.81-.96,3.01-.86,3.01-.86,0,0-.43,1.91-.15,3.76.23,1.52-.13,3.81-1.13,5.88Z"/>
      <path class="cls-6" d="M13.41,64.12c.75,2.58,1.28,8.5-.39,6.9-2.23-2.13-4.8-7.03-4.8-7.03,0,0,1.84,6.35,3.31,7.43,3.69,2.72-5.11.24-7.16-5.83-.41-1.21-1.57-3.95-.02-8.22.89-2.43,2.09-3.35,2.09-3.35,0,0,1.22,2.15,3.05,3.64,1.5,1.23,3.11,3.68,3.92,6.46Z"/>
      <path class="cls-11" d="M17.62,98.18c.75,2.58,1.28,8.5-.39,6.9-2.23-2.13-4.8-7.03-4.8-7.03,0,0,1.84,6.35,3.31,7.43,3.69,2.72-5.11.24-7.16-5.83-.41-1.21-1.57-3.95-.02-8.22.89-2.43,2.09-3.35,2.09-3.35,0,0,1.22,2.15,3.05,3.64,1.5,1.23,3.11,3.68,3.92,6.46Z"/>
      <path class="cls-14" d="M30.97,82.71c0,2.69-.45,7.89-2.32,6.51-3.64-2.69-2.87-12.04-2.87-12.04,0,0-2.95,5.06,1.33,12.01,2.43,3.94-4.97-1.21-5.23-7.61-.05-1.27-.4-4.23,2.29-7.89,1.54-2.09,2.94-2.63,2.94-2.63,0,0,.77.91,2.11,2.86,1.1,1.6,1.74,5.9,1.74,8.8Z"/>
      <path class="cls-10" d="M52.75,42.55c0,2.69-.45,7.89-2.32,6.51-3.64-2.69-2.87-12.04-2.87-12.04,0,0-2.95,5.06,1.33,12.01,2.43,3.94-4.97-1.21-5.23-7.61-.05-1.27-.4-4.23,2.29-7.89,1.54-2.09,2.94-2.63,2.94-2.63,0,0,.77.91,2.11,2.86,1.1,1.6,1.74,5.9,1.74,8.8Z"/>
      <path class="cls-2" d="M41.86,43.53c0,1.44-.24,4.23-1.24,3.49-1.95-1.44-1.54-6.45-1.54-6.45,0,0-1.58,2.71.71,6.43,1.3,2.11-2.66-.65-2.8-4.08-.03-.68-.21-2.27,1.23-4.23.82-1.12,1.58-1.41,1.58-1.41,0,0,.41.49,1.13,1.53.59.86.93,3.16.93,4.72Z"/>
      <path class="cls-2" d="M21.69,43.79c0,2.69-1.25,7.94-2.4,5.93-1.54-2.67-1.89-6.3-1.89-6.3,0,0-.17,4.78.94,6.23,2.77,3.65-4.97-1.21-5.23-7.61-.05-1.27-.4-4.23,2.29-7.89,1.54-2.09,2.94-2.63,2.94-2.63,0,0-.62,3.97.72,5.92,1.1,1.6,2.63,4.54,2.63,6.35Z"/>
      <path class="cls-14" d="M90.91,34.88c-2.07,1.71-6.92,4.08-6.11,1.92,1.09-2.88,3.66-5.47,3.66-5.47,0,0-3.8,2.91-4.22,4.68-1.05,4.46-2.23-4.61,2.55-8.88.95-.85,3.01-3,7.55-3.24,2.59-.14,3.9.6,3.9.6,0,0-3.46,2.04-4.11,4.32-.54,1.86-1.83,4.92-3.23,6.07Z"/>
      <path class="cls-17" d="M51.74,97.93c0,2.69-1.25,7.94-2.4,5.93-1.54-2.67-1.89-6.3-1.89-6.3,0,0-.17,4.78.94,6.23,2.77,3.65-4.97-1.21-5.23-7.61-.05-1.27-.4-4.23,2.29-7.89,1.54-2.09,2.94-2.63,2.94-2.63,0,0-.62,3.97.72,5.92,1.1,1.6,2.63,4.54,2.63,6.35Z"/>
      <path class="cls-13" d="M21.44,88.52c1.07,1.66,2.4,5.42.88,4.63-2.02-1.04-3.69-3.15-3.69-3.15,0,0,1.8,3.03,3.07,3.48,3.17,1.15-3.56,1.24-6.28-2.63-.54-.77-1.94-2.46-1.73-5.8.12-1.9.77-2.81.77-2.81,0,0,1.2,2.71,2.81,3.38,1.32.55,3.44,1.76,4.17,2.88Z"/>
      <path class="cls-6" d="M26.96,106.09c.44,1.48.61,4.57-.35,3.65-1.28-1.22-2.07-3.15-2.07-3.15,0,0,.69,2.65,1.53,3.27,2.12,1.55-2.93.15-4.11-3.33-.24-.69-.91-2.26-.02-4.71.5-1.4,1.19-1.93,1.19-1.93,0,0,.31,2.28,1.36,3.13.86.7,2.19,2.07,2.48,3.06Z"/>
      <path class="cls-8" d="M22.23,70.55c.44,1.48.61,4.57-.35,3.65-1.28-1.22-2.07-3.15-2.07-3.15,0,0,.69,2.65,1.53,3.27,2.12,1.55-2.93.15-4.11-3.33-.24-.69-.91-2.26-.02-4.71.5-1.4,1.19-1.93,1.19-1.93,0,0,.31,2.28,1.36,3.13.86.7,2.19,2.07,2.48,3.06Z"/>
      <path class="cls-17" d="M42.3,30.2c.44,1.48.61,4.57-.35,3.65-1.28-1.22-2.07-3.15-2.07-3.15,0,0,.69,2.65,1.53,3.27,2.12,1.55-2.93.15-4.11-3.33-.24-.69-.91-2.26-.02-4.71.5-1.4,1.19-1.93,1.19-1.93,0,0,.31,2.28,1.36,3.13.86.7,2.19,2.07,2.48,3.06Z"/>
      <path class="cls-17" d="M45.21,65.83c.44,1.48.61,4.57-.35,3.65-1.28-1.22-2.07-3.15-2.07-3.15,0,0,.69,2.65,1.53,3.27,2.12,1.55-2.93.15-4.11-3.33-.24-.69-.91-2.26-.02-4.71.5-1.4,1.19-1.93,1.19-1.93,0,0,.31,2.28,1.36,3.13.86.7,2.19,2.07,2.48,3.06Z"/>
      <path class="cls-10" d="M7.87,83.02c1.09,1.09,2.71,3.72,1.43,3.38-1.7-.46-3.32-1.79-3.32-1.79,0,0,1.87,2.01,2.9,2.15,2.6.36-2.5,1.52-5.2-.97-.54-.5-1.88-1.55-2.26-4.13-.22-1.47.13-2.26.13-2.26,0,0,1.36,1.86,2.69,2.11,1.09.2,2.91.78,3.64,1.51Z"/>
      <path class="cls-8" d="M56.05,71.5c0,2.69-1.25,7.94-2.4,5.93-1.54-2.67-1.89-6.3-1.89-6.3,0,0-.17,4.78.94,6.23,2.77,3.65-4.97-1.21-5.23-7.61-.05-1.27-.4-4.23,2.29-7.89,1.54-2.09,2.94-2.63,2.94-2.63,0,0-.62,3.97.72,5.92,1.1,1.6,2.63,4.54,2.63,6.35Z"/>
      <path class="cls-13" d="M76.73,19.35c-.85,2.92-1.45,9.63.44,7.81,2.52-2.41,5.43-7.97,5.43-7.97,0,0-2.09,7.19-3.75,8.42-4.18,3.08,5.79.27,8.11-6.61.46-1.37,1.78-4.47.02-9.31-1.01-2.75-2.36-3.8-2.36-3.8,0,0-1.38,2.43-3.45,4.13-1.7,1.39-3.52,4.17-4.44,7.32Z"/>
      <path class="cls-3" d="M85.65,49.86c-.75,2.58-1.28,8.5.39,6.9,2.23-2.13,4.8-7.03,4.8-7.03,0,0-1.84,6.35-3.31,7.43-3.69,2.72,5.11.24,7.16-5.83.41-1.21,1.57-3.95.02-8.22-.89-2.43-2.09-3.35-2.09-3.35,0,0-1.22,2.15-3.05,3.64-1.5,1.23-3.11,3.68-3.92,6.46Z"/>
      <path class="cls-11" d="M112.76,71.71c-.75,2.58-1.28,8.5.39,6.9,2.23-2.13,4.8-7.03,4.8-7.03,0,0-1.84,6.35-3.31,7.43-3.69,2.72,5.11.24,7.16-5.83.41-1.21,1.57-3.95.02-8.22-.89-2.43-2.09-3.35-2.09-3.35,0,0-1.22,2.15-3.05,3.64-1.5,1.23-3.11,3.68-3.92,6.46Z"/>
      <path class="cls-10" d="M104.31,96.55c-1.64,2.13-4.29,7.45-2.15,6.57,2.85-1.17,7.03-4.8,7.03-4.8,0,0-4.03,5.24-5.79,5.71-4.43,1.19,4.67,2.08,8.79-2.82.82-.98,2.9-3.1,3.01-7.65.06-2.59-.72-3.88-.72-3.88,0,0-1.92,1.56-4.17,2.28-1.85.59-4.24,2.3-6.01,4.59Z"/>
      <path class="cls-3" d="M92.47,72.3c0,2.69.45,7.89,2.32,6.51,3.64-2.69,2.87-12.04,2.87-12.04,0,0,2.95,5.06-1.33,12.01-2.43,3.94,4.97-1.21,5.23-7.61.05-1.27.4-4.23-2.29-7.89-1.54-2.09-2.94-2.63-2.94-2.63,0,0-.77.91-2.11,2.86-1.1,1.6-1.74,5.9-1.74,8.8Z"/>
      <path class="cls-10" d="M32.73,74.3c1.16,2.43,3.8,6.93,4.89,4.89,2.13-3.99-2.58-12.11-2.58-12.11,0,0,4.84,3.3,3.96,11.41-.5,4.6,3.97-3.23,1.45-9.12-.5-1.17-1.46-3.99-5.46-6.14-2.28-1.22-3.79-1.11-3.79-1.11,0,0-.31,1.15-.68,3.49-.3,1.92.96,6.08,2.21,8.7Z"/>
      <path class="cls-13" d="M30.1,107.26c1.16,2.43,3.8,6.93,4.89,4.89,2.13-3.99-2.58-12.11-2.58-12.11,0,0,4.84,3.3,3.96,11.41-.5,4.6,3.97-3.23,1.45-9.12-.5-1.17-1.46-3.99-5.46-6.14-2.28-1.22-3.79-1.11-3.79-1.11,0,0-.31,1.15-.68,3.49-.3,1.92.96,6.08,2.21,8.7Z"/>
      <path class="cls-13" d="M70.68,41.9c0,2.69.45,7.89,2.32,6.51,3.64-2.69,2.87-12.04,2.87-12.04,0,0,2.95,5.06-1.33,12.01-2.43,3.94,4.97-1.21,5.23-7.61.05-1.27.4-4.23-2.29-7.89-1.54-2.09-2.94-2.63-2.94-2.63,0,0-.77.91-2.11,2.86-1.1,1.6-1.74,5.9-1.74,8.8Z"/>
      <path class="cls-17" d="M101.74,43.13c0,2.69,1.25,7.94,2.4,5.93,1.54-2.67,1.89-6.3,1.89-6.3,0,0,.17,4.78-.94,6.23-2.77,3.65,4.97-1.21,5.23-7.61.05-1.27.4-4.23-2.29-7.89-1.54-2.09-2.94-2.63-2.94-2.63,0,0,.62,3.97-.72,5.92-1.1,1.6-2.63,4.54-2.63,6.35Z"/>
      <path class="cls-10" d="M57.2,43.35c0,3.21,1.49,9.48,2.87,7.09,1.84-3.19,2.26-7.52,2.26-7.52,0,0,.2,5.71-1.12,7.44-3.31,4.36,5.94-1.44,6.25-9.09.06-1.52.48-5.05-2.74-9.43-1.83-2.49-3.51-3.14-3.51-3.14,0,0,.74,4.74-.86,7.07-1.31,1.91-3.15,5.42-3.15,7.58Z"/>
      <path class="cls-5" d="M43.4,57.26c.98,1.45,3.57,3.84,3.46,2.33-.14-2-1.27-4.09-1.27-4.09,0,0,1.83,2.52,1.76,3.71-.17,2.98,2.25-2.46.05-6.02-.44-.71-1.33-2.43-4.12-3.43-1.59-.57-2.55-.35-2.55-.35,0,0,1.78,1.92,1.77,3.46-.01,1.26.23,3.42.89,4.39Z"/>
      <path class="cls-3" d="M53.14,89.89c.98,1.45,3.57,3.84,3.46,2.33-.14-2-1.27-4.09-1.27-4.09,0,0,1.83,2.52,1.76,3.71-.17,2.98,2.25-2.46.05-6.02-.44-.71-1.33-2.43-4.12-3.43-1.59-.57-2.55-.35-2.55-.35,0,0,1.78,1.92,1.77,3.46-.01,1.26.23,3.42.89,4.39Z"/>
      <path class="cls-17" d="M53.15,29.76c.98,1.45,3.57,3.84,3.46,2.33-.14-2-1.27-4.09-1.27-4.09,0,0,1.83,2.52,1.76,3.71-.17,2.98,2.25-2.46.05-6.02-.44-.71-1.33-2.43-4.12-3.43-1.59-.57-2.55-.35-2.55-.35,0,0,1.78,1.92,1.77,3.46-.01,1.26.23,3.42.89,4.39Z"/>
      <path class="cls-3" d="M54.92,59.18c.98,1.45,3.57,3.84,3.46,2.33-.14-2-1.27-4.09-1.27-4.09,0,0,1.83,2.52,1.76,3.71-.17,2.98,2.25-2.46.05-6.02-.44-.71-1.33-2.43-4.12-3.43-1.59-.57-2.55-.35-2.55-.35,0,0,1.78,1.92,1.77,3.46-.01,1.26.23,3.42.89,4.39Z"/>
      <path class="cls-2" d="M95.48,33.73c-.89,1.51-1.94,4.86-.63,4.12,1.75-.99,3.16-2.9,3.16-2.9,0,0-1.5,2.73-2.6,3.18-2.77,1.12,3.19.98,5.47-2.52.45-.7,1.63-2.24,1.34-5.19-.17-1.68-.77-2.46-.77-2.46,0,0-.97,2.43-2.37,3.08-1.15.53-2.99,1.67-3.59,2.68Z"/>
      <path class="cls-2" d="M63.34,25.63c.98,1.45,3.57,3.84,3.46,2.33-.14-2-1.27-4.09-1.27-4.09,0,0,1.83,2.52,1.76,3.71-.17,2.98,2.25-2.46.05-6.02-.44-.71-1.33-2.43-4.12-3.43-1.59-.57-2.55-.35-2.55-.35,0,0,1.78,1.92,1.77,3.46-.01,1.26.23,3.42.89,4.39Z"/>
      <path class="cls-8" d="M68.06,61.77c-.98,1.45-3.57,3.84-3.46,2.33.14-2,1.27-4.09,1.27-4.09,0,0-1.83,2.52-1.76,3.71.17,2.98-2.25-2.46-.05-6.02.44-.71,1.33-2.43,4.12-3.43,1.59-.57,2.55-.35,2.55-.35,0,0-1.78,1.92-1.77,3.46.01,1.26-.23,3.42-.89,4.39Z"/>
      <path class="cls-3" d="M45.83,81.61c-.71,1.05-2.57,2.77-2.5,1.68.1-1.45.92-2.96.92-2.96,0,0-1.32,1.82-1.27,2.68.12,2.15-1.62-1.78-.04-4.35.31-.51.96-1.76,2.97-2.48,1.15-.41,1.84-.25,1.84-.25,0,0-1.29,1.39-1.28,2.5,0,.91-.17,2.47-.64,3.17Z"/>
      <path class="cls-17" d="M28.57,33.05c1.45,2.14,5.27,5.66,5.11,3.44-.21-2.96-1.88-6.04-1.88-6.04,0,0,2.71,3.72,2.61,5.47-.25,4.4,3.31-3.64.07-8.89-.65-1.04-1.96-3.59-6.08-5.05-2.35-.83-3.76-.51-3.76-.51,0,0,2.63,2.83,2.62,5.1-.01,1.87.35,5.04,1.32,6.48Z"/>
      <path class="cls-14" d="M13.74,59.36c1.53,1.45,5.18,3.58,4.67,1.84-.69-2.31-2.55-4.48-2.55-4.48,0,0,2.8,2.49,3.03,3.9.57,3.55,2-3.48-1.5-7.08-.7-.72-2.19-2.51-5.72-2.96-2.01-.25-3.08.25-3.08.25,0,0,2.59,1.79,2.97,3.6.32,1.49,1.16,3.95,2.18,4.92Z"/>
      <path class="cls-17" d="M9.09,79.71c2.08.33,6.3,0,4.89-1.13-1.88-1.52-4.64-2.24-4.64-2.24,0,0,3.72.46,4.71,1.49,2.48,2.59-.32-4-5.25-4.98-.98-.2-3.23-.83-6.39.81-1.8.93-2.4,1.96-2.4,1.96,0,0,3.15,0,4.49,1.28,1.1,1.04,3.19,2.6,4.59,2.82Z"/>
      <path class="cls-8" d="M72.4,86.22c0,2.69,1.25,7.94,2.4,5.93,1.54-2.67,1.89-6.3,1.89-6.3,0,0,.17,4.78-.94,6.23-2.77,3.65,4.97-1.21,5.23-7.61.05-1.27.4-4.23-2.29-7.89-1.54-2.09-2.94-2.63-2.94-2.63,0,0,.62,3.97-.72,5.92-1.1,1.6-2.63,4.54-2.63,6.35Z"/>
      <path class="cls-11" d="M33.92,91.11c0,1.94.9,5.73,1.73,4.28,1.11-1.93,1.37-4.54,1.37-4.54,0,0,.12,3.45-.68,4.49-2,2.63,3.59-.87,3.77-5.49.04-.92.29-3.05-1.65-5.69-1.11-1.5-2.12-1.9-2.12-1.9,0,0,.45,2.86-.52,4.27-.79,1.15-1.9,3.28-1.9,4.58Z"/>
      <path class="cls-5" d="M67.38,70.05c0,2.51,1.25,7.43,2.4,5.55,1.54-2.5,1.89-5.89,1.89-5.89,0,0,.17,4.47-.94,5.83-2.77,3.41,4.97-1.13,5.23-7.12.05-1.19.4-3.96-2.29-7.38-1.54-1.95-2.94-2.46-2.94-2.46,0,0,.62,3.71-.72,5.54-1.1,1.5-2.63,4.25-2.63,5.94Z"/>
      <path class="cls-14" d="M21.85,35.6c.52,1.71,2.33,4.82,2.68,3.32.46-2,0-4.38,0-4.38,0,0,1.03,3.02.6,4.15-1.07,2.86,2.94-1.73,1.87-5.86-.21-.82-.56-2.78-2.98-4.59-1.38-1.03-2.38-1.11-2.38-1.11,0,0,1.16,2.41.68,3.91-.39,1.23-.8,3.4-.46,4.56Z"/>
      <path class="cls-8" d="M22.48,60.59c.57,1.89,2.56,5.31,2.95,3.66.51-2.2,0-4.82,0-4.82,0,0,1.13,3.32.66,4.57-1.17,3.15,3.23-1.9,2.06-6.45-.23-.91-.62-3.06-3.29-5.05-1.52-1.14-2.63-1.22-2.63-1.22,0,0,1.28,2.66.75,4.31-.43,1.36-.89,3.75-.5,5.02Z"/>
      <path class="cls-10" d="M103.44,86.85c-1.07,1.66-2.4,5.42-.88,4.63,2.02-1.04,3.69-3.15,3.69-3.15,0,0-1.8,3.03-3.07,3.48-3.17,1.15,3.56,1.24,6.28-2.63.54-.77,1.94-2.46,1.73-5.8-.12-1.9-.77-2.81-.77-2.81,0,0-1.2,2.71-2.81,3.38-1.32.55-3.44,1.76-4.17,2.88Z"/>
      <path class="cls-14" d="M93.93,98.23c-.44,1.48-.61,4.57.35,3.65,1.28-1.22,2.07-3.15,2.07-3.15,0,0-.69,2.65-1.53,3.27-2.12,1.55,2.93.15,4.11-3.33.24-.69.91-2.26.02-4.71-.5-1.4-1.19-1.93-1.19-1.93,0,0-.31,2.28-1.36,3.13-.86.7-2.19,2.07-2.48,3.06Z"/>
      <path class="cls-17" d="M102.82,70.49c-.44,1.48-.61,4.57.35,3.65,1.28-1.22,2.07-3.15,2.07-3.15,0,0-.69,2.65-1.53,3.27-2.12,1.55,2.93.15,4.11-3.33.24-.69.91-2.26.02-4.71-.5-1.4-1.19-1.93-1.19-1.93,0,0-.31,2.28-1.36,3.13-.86.7-2.19,2.07-2.48,3.06Z"/>
      <path class="cls-3" d="M79.84,65.78c-.44,1.48-.61,4.57.35,3.65,1.28-1.22,2.07-3.15,2.07-3.15,0,0-.69,2.65-1.53,3.27-2.12,1.55,2.93.15,4.11-3.33.24-.69.91-2.26.02-4.71-.5-1.4-1.19-1.93-1.19-1.93,0,0-.31,2.28-1.36,3.13-.86.7-2.19,2.07-2.48,3.06Z"/>
      <path class="cls-17" d="M117.18,82.97c-1.09,1.09-2.71,3.72-1.43,3.38,1.7-.46,3.32-1.79,3.32-1.79,0,0-1.87,2.01-2.9,2.15-2.6.36,2.5,1.52,5.2-.97.54-.5,1.88-1.55,2.26-4.13.22-1.47-.13-2.26-.13-2.26,0,0-1.36,1.86-2.69,2.11-1.09.2-2.91.78-3.64,1.51Z"/>
      <path class="cls-10" d="M81.64,57.21c-.98,1.45-3.57,3.84-3.46,2.33.14-2,1.27-4.09,1.27-4.09,0,0-1.83,2.52-1.76,3.71.17,2.98-2.25-2.46-.05-6.02.44-.71,1.33-2.43,4.12-3.43,1.59-.57,2.55-.35,2.55-.35,0,0-1.78,1.92-1.77,3.46.01,1.26-.23,3.42-.89,4.39Z"/>
      <path class="cls-14" d="M84.49,76.97c.71,1.05,2.57,2.77,2.5,1.68-.1-1.45-.92-2.96-.92-2.96,0,0,1.32,1.82,1.27,2.68-.12,2.15,1.62-1.78.04-4.35-.31-.51-.96-1.76-2.97-2.48-1.15-.41-1.84-.25-1.84-.25,0,0,1.29,1.39,1.28,2.5,0,.91.17,2.47.64,3.17Z"/>
      <path class="cls-6" d="M111.3,59.31c-1.53,1.45-5.18,3.58-4.67,1.84.69-2.31,2.55-4.48,2.55-4.48,0,0-2.8,2.49-3.03,3.9-.57,3.55-2-3.48,1.5-7.08.7-.72,2.19-2.51,5.72-2.96,2.01-.25,3.08.25,3.08.25,0,0-2.59,1.79-2.97,3.6-.32,1.49-1.16,3.95-2.18,4.92Z"/>
      <path class="cls-13" d="M98,88.94c-1.75,1.17-5.71,2.65-4.91,1.03,1.07-2.17,3.27-3.98,3.27-3.98,0,0-3.18,1.98-3.65,3.33-1.16,3.4-1.39-3.76,2.67-6.73.81-.59,2.58-2.11,6.14-1.95,2.03.09,3,.77,3,.77,0,0-2.85,1.33-3.54,3.05-.56,1.41-1.81,3.7-2.98,4.49Z"/>
      <path class="cls-6" d="M89.62,94.67c0,1.94-.9,5.73-1.73,4.28-1.11-1.93-1.37-4.54-1.37-4.54,0,0-.12,3.45.68,4.49,2,2.63-3.59-.87-3.77-5.49-.04-.92-.29-3.05,1.65-5.69,1.11-1.5,2.12-1.9,2.12-1.9,0,0-.45,2.86.52,4.27.79,1.15,1.9,3.28,1.9,4.58Z"/>
      <path class="cls-14" d="M101.21,56.47c-.35,1.15-1.56,3.24-1.8,2.23-.31-1.35,0-2.95,0-2.95,0,0-.69,2.03-.41,2.79.72,1.92-1.98-1.16-1.26-3.94.14-.55.38-1.87,2.01-3.09.93-.7,1.6-.75,1.6-.75,0,0-.78,1.62-.46,2.63.26.83.54,2.29.31,3.07Z"/>
      <path class="cls-17" d="M51.28,14.28c1.2,1.74,4.35,4.59,4.2,2.77-.19-2.42-1.58-4.92-1.58-4.92,0,0,2.24,3.02,2.17,4.45-.17,3.6,2.68-3,0-7.26-.53-.85-1.63-2.92-5-4.09-1.92-.67-3.08-.39-3.08-.39,0,0,2.17,2.3,2.17,4.15,0,1.52.32,4.12,1.12,5.29Z"/>
      <path class="cls-12" d="M16.93,114.69c-1.28,1.23-3.32,1.18-4.55-.11s-1.18-3.32.11-4.55,5.75-.61,7.41-2.62c1.13-1.37-1.69,6.05-2.97,7.28Z"/>
      <path class="cls-12" d="M23,116.29c-.12,1.23-1.22,2.14-2.46,2.01s-2.14-1.22-2.01-2.46c.12-1.23,2.77-2.94,2.73-4.76-.03-1.24,1.86,3.97,1.74,5.21Z"/>
      <path class="cls-12" d="M27.69,116.05c.38.85,0,1.84-.84,2.22s-1.84,0-2.22-.84.7-2.94,0-4.11c-.48-.79,2.69,1.88,3.07,2.72Z"/>
      <g>
        <g>
          <path class="cls-16" d="M75.95,153.65c4.94.98,9.82,1.95,14.68,3.31,9.8,2.74,15.8,5.46,24.19,11.17-18.22-2.18-36.72,2.65-54.48,2.07-12.06-.4-23.94-3.26-35.98-3.93-3.39-.19-6.91.27-10.24-.41,6.89-4.16,12.5-6.68,20.26-8.89,6.71-1.91,9.66-2.86,16.61-3.57.09,0,2.36-.34,2.62-.36,7.35-.68,15.02-.2,22.33.62Z"/>
          <path class="cls-9" d="M14.13,165.85c3.33.68,6.84.22,10.24.41,12.04.67,23.92,3.53,35.98,3.93,17.76.58,36.26-4.24,54.48-2.07,3.31,2.25,6.53,4.4,9.3,7.34l-.31.31H1.62c-.5-.41-.22-.3,0-.62,1.37-2,9.92-7.74,12.51-9.3Z"/>
          <path class="cls-15" d="M74.52,156.22c4.32.69,8.6,1.36,12.86,2.32,8.58,1.92,13.84,3.82,21.19,7.82-15.96-1.52-32.16,1.86-47.71,1.45-10.56-.28-20.97-2.28-31.51-2.75-2.97-.13-6.05.19-8.96-.29,6.03-2.92,10.95-4.68,17.75-6.23,5.88-1.34,8.75-2.01,14.84-2.5.08,0,1.78-.24,2-.25,6.44-.48,13.16-.14,19.56.43Z"/>
          <path class="cls-7" d="M73.15,158.88c3.73.37,7.43.74,11.1,1.26,7.41,1.04,11.95,2.08,18.29,4.25-13.78-.83-27.77,1.01-41.2.79-9.12-.15-18.11-1.24-27.21-1.49-2.57-.07-5.23.1-7.74-.16,5.21-1.58,9.45-2.54,15.32-3.38,5.08-.73,7.56-1.09,12.81-1.36.07,0,1.53-.13,1.73-.14,5.56-.26,11.36-.08,16.89.24Z"/>
          <path class="cls-1" d="M16.75,166.18c2.97,0,4.22-.11,7.62.08,12.04.67,23.92,3.53,35.98,3.93,17.76.58,32.6-3.94,50.31-2.34,3.98.36,3.9,2.57,6.68,5.51l-.31.31H6.88c-.5-.41-.22-.3,0-.62,1.37-2,6.84-6.87,9.86-6.87Z"/>
          <path class="cls-4" d="M19.79,166.32c2.43.12,2.86-.07,4.57-.06,12.06.06,23.92,3.53,35.98,3.93,17.76.58,28.51-3.67,45.83-2.5,3.99.27,2.77.63,5.55,3.56l-.31.31c-61.1,0-38.5-.02-99.6-.02-.5-.41-.22-.3,0-.62,1.37-2,4.96-4.75,7.99-4.6Z"/>
        </g>
        <path class="cls-3" d="M81.9,98.61v.2c-.19-.04-.59.07-.59-.1l.59-.1Z"/>
        <path class="cls-12" d="M64.03,116.39c11.64-4.39,6.73-17.84-2.07-28.16,8.31,5.41,13.21,12.52,15.96,20.88,2.6,7.91,2.96,15.94.54,25.46-1,3.95-3.17,11.16-4.16,14.61-3.1,10.81-7.45,19.19-8.15,18.98-.06-.02-.09-.1-.08-.14,2.29-17.54,3.29-23.64,1.69-27.8-.33-.86-16.65,27.38-15.87,21.33,1.03-7.97,8.26-20.18,8.36-33.27.05-6.36-15-.87-23.81,0-.74.07-.95-.96-.25-1.19M62.2,115.13c.39-.13.88-.3,1.23-.53,2.79-1.7,3.73-5.32,2.1-8.18-1.46-2.38-4.52-3.36-7.14-2.47l3.81,11.18ZM58.38,103.95l3.81,11.18c-2.63.9-5.58-.12-7.05-2.5-1.72-2.82-.79-6.45,2.1-8.18.36-.23.75-.36,1.14-.49Z"/>
        <path class="cls-12" d="M43.93,138.16c6.05-1.57,4.32-8.58.47-14.23,3.87,3.16,5.94,6.99,6.86,11.34.88,4.11.63,8.15-1.09,12.8-.71,1.92-2.18,5.43-2.86,7.1-2.12,5.25-4.75,9.22-5.09,9.07-.03-.01-.04-.06-.03-.07,2.08-8.67,2.91-11.67,2.33-13.85-.12-.45-9.78,12.83-9.07,9.83.94-3.94,5.21-9.67,5.96-16.23.36-3.19-7.45-1.25-11.9-1.29-.37,0-.42-.53-.06-.61M43.08,137.43c.2-.05.45-.1.64-.2,1.48-.7,2.15-2.47,1.49-3.99-.61-1.27-2.08-1.93-3.44-1.63l1.31,5.81ZM41.77,131.62l1.31,5.81c-1.36.31-2.78-.36-3.39-1.64-.71-1.51-.05-3.28,1.49-3.99.19-.1.39-.14.59-.19Z"/>
        <path class="cls-12" d="M108.63,134.4c.46.17.29.85-.2.79-5.83-.8-15.97.75-16.1,4.99-.28,8.72,5.59,15.48,6.06,20.81.36,4.05-10.27-14.71-10.51-14.15-1.18,2.74-2.33,5.85-1.27,17.6,0,.03-.87.84-.9.85-.47.12-2.25-5.59-3.29-13-.51-3.61-.74-7.23-.96-9.93-.63-7.56-.9-11.74,1.03-16.95,2.05-5.51,5.49-10.12,11.15-13.51-6.12,6.66-9.56,16.44-1.94,19.66M93.81,121.39c-1.72-.66-3.77-.08-4.81,1.47-1.16,1.86-.63,4.3,1.18,5.5.23.16.55.28.8.38l2.83-7.35ZM94.55,121.75c1.87,1.22,2.4,3.66,1.18,5.5-1.03,1.55-3.03,2.15-4.75,1.49l2.83-7.35c.26.1.51.2.74.36Z"/>
      </g>
    </g>
  </g>
</svg>