<?xml version="1.0" encoding="UTF-8"?>
<svg id="Camada_2" data-name="Camada 2" xmlns="http://www.w3.org/2000/svg" viewBox="0 0 184.39 261.11">
  <defs>
    <style>
      .cls-1, .cls-2 {
        fill: #dadada;
        stroke-width: 0px;
      }

      .cls-2 {
        fill-rule: evenodd;
      }
    </style>
  </defs>
  <g id="Camada_1-2" data-name="Camada 1">
    <g>
      <path class="cls-1" d="M99.97,15.07c0,3.47-1.73,11.01-3.44,8.42-2.28-3.45-3.91-10.47-3.91-10.47,0,0-.02,8.55,1.62,10.42,4.12,4.72-7.39-1.56-7.77-9.84-.08-1.65-.6-5.47,3.41-10.2,2.28-2.7,4.37-3.4,4.37-3.4,0,0,.84,3.11,2.83,5.63,1.63,2.07,2.89,5.7,2.89,9.45Z"/>
      <path class="cls-1" d="M97.36,111.9c0,2.92-1.26,9.26-2.52,7.08-1.67-2.9-2.86-8.81-2.86-8.81,0,0-.02,7.19,1.18,8.77,3.02,3.97-5.41-1.31-5.69-8.28-.06-1.39-.44-4.6,2.49-8.58,1.67-2.27,3.2-2.86,3.2-2.86,0,0,.62,2.61,2.07,4.73,1.19,1.74,2.12,4.79,2.12,7.95Z"/>
      <path class="cls-1" d="M69.38,25.28c1.12,3.83,1.9,12.63-.58,10.25-3.31-3.17-7.13-10.45-7.13-10.45,0,0,2.74,9.43,4.91,11.04,5.48,4.04-7.59.35-10.63-8.67-.61-1.79-2.34-5.87-.02-12.21,1.32-3.61,3.1-4.98,3.1-4.98,0,0,1.81,3.19,4.53,5.41,2.23,1.82,4.62,5.47,5.83,9.6Z"/>
      <path class="cls-1" d="M56.12,75.03c1.12,3.83,1.9,12.63-.58,10.25-3.31-3.17-7.13-10.45-7.13-10.45,0,0,2.74,9.43,4.91,11.04,5.48,4.04-7.59.35-10.63-8.67-.61-1.79-2.34-5.87-.02-12.21,1.32-3.61,3.1-4.98,3.1-4.98,0,0,1.81,3.19,4.53,5.41,2.23,1.82,4.62,5.47,5.83,9.6Z"/>
      <path class="cls-1" d="M110.52,26.54c-1.38,2.85-5.6,8.42-5.79,5.71-.26-3.62,1.37-9.92,1.37-9.92,0,0-3.41,6.99-2.98,9.09,1.07,5.28-4.65-3.83-1.64-10.74.6-1.38,1.74-4.69,6.47-7.18,2.69-1.42,4.47-1.28,4.47-1.28,0,0-.63,2.84-.22,5.58.34,2.26-.19,5.66-1.68,8.74Z"/>
      <path class="cls-1" d="M19.92,95.24c1.12,3.83,1.9,12.63-.58,10.25-3.31-3.17-7.13-10.45-7.13-10.45,0,0,2.74,9.43,4.91,11.04,5.48,4.04-7.59.35-10.63-8.67-.61-1.79-2.34-5.87-.02-12.21,1.32-3.61,3.1-4.98,3.1-4.98,0,0,1.81,3.19,4.53,5.41,2.23,1.82,4.62,5.47,5.83,9.6Z"/>
      <path class="cls-1" d="M26.18,145.85c1.12,3.83,1.9,12.63-.58,10.25-3.31-3.17-7.13-10.45-7.13-10.45,0,0,2.74,9.43,4.91,11.04,5.48,4.04-7.59.35-10.63-8.67-.61-1.79-2.34-5.87-.02-12.21,1.32-3.61,3.1-4.98,3.1-4.98,0,0,1.81,3.19,4.53,5.41,2.23,1.82,4.62,5.47,5.83,9.6Z"/>
      <path class="cls-1" d="M46,122.86c0,3.99-.67,11.72-3.44,9.67-5.41-3.99-4.27-17.89-4.27-17.89,0,0-4.38,7.52,1.98,17.84,3.6,5.85-7.39-1.79-7.77-11.3-.08-1.89-.6-6.29,3.41-11.72,2.28-3.1,4.37-3.91,4.37-3.91,0,0,1.15,1.35,3.13,4.24,1.63,2.38,2.59,8.77,2.59,13.08Z"/>
      <path class="cls-1" d="M78.36,63.21c0,3.99-.67,11.72-3.44,9.67-5.41-3.99-4.27-17.89-4.27-17.89,0,0-4.38,7.52,1.98,17.84,3.6,5.85-7.39-1.79-7.77-11.3-.08-1.89-.6-6.29,3.41-11.72,2.28-3.1,4.37-3.91,4.37-3.91,0,0,1.15,1.35,3.13,4.24,1.63,2.38,2.59,8.77,2.59,13.08Z"/>
      <path class="cls-1" d="M62.18,64.66c0,2.14-.36,6.28-1.84,5.18-2.9-2.14-2.29-9.59-2.29-9.59,0,0-2.35,4.03,1.06,9.56,1.93,3.13-3.96-.96-4.16-6.06-.04-1.01-.32-3.37,1.83-6.28,1.22-1.66,2.34-2.1,2.34-2.1,0,0,.61.72,1.68,2.27.87,1.27,1.39,4.7,1.39,7.01Z"/>
      <path class="cls-1" d="M32.22,65.04c0,3.99-1.85,11.79-3.57,8.81-2.28-3.97-2.81-9.36-2.81-9.36,0,0-.25,7.1,1.39,9.25,4.12,5.42-7.39-1.79-7.77-11.3-.08-1.89-.6-6.29,3.41-11.72,2.28-3.1,4.37-3.91,4.37-3.91,0,0-.92,5.9,1.07,8.79,1.63,2.38,3.91,6.75,3.91,9.43Z"/>
      <path class="cls-1" d="M135.04,51.82c-3.08,2.54-10.28,6.06-9.07,2.85,1.61-4.28,5.44-8.12,5.44-8.12,0,0-5.64,4.32-6.26,6.96-1.56,6.63-3.31-6.84,3.79-13.18,1.41-1.26,4.48-4.46,11.22-4.82,3.84-.21,5.8.89,5.8.89,0,0-5.14,3.04-6.11,6.41-.8,2.77-2.72,7.31-4.8,9.02Z"/>
      <path class="cls-1" d="M76.86,145.47c0,3.99-1.85,11.79-3.57,8.81-2.28-3.97-2.81-9.36-2.81-9.36,0,0-.25,7.1,1.39,9.25,4.12,5.42-7.39-1.79-7.77-11.3-.08-1.89-.6-6.29,3.41-11.72,2.28-3.1,4.37-3.91,4.37-3.91,0,0-.92,5.9,1.07,8.79,1.63,2.38,3.91,6.75,3.91,9.43Z"/>
      <path class="cls-1" d="M31.85,131.5c1.59,2.47,3.56,8.04,1.31,6.88-3-1.55-5.48-4.67-5.48-4.67,0,0,2.68,4.5,4.56,5.18,4.72,1.71-5.29,1.84-9.33-3.9-.8-1.14-2.88-3.66-2.57-8.62.18-2.83,1.15-4.17,1.15-4.17,0,0,1.78,4.02,4.17,5.02,1.96.82,5.12,2.62,6.19,4.28Z"/>
      <path class="cls-1" d="M40.05,157.59c.65,2.19.9,6.78-.52,5.42-1.9-1.81-3.07-4.68-3.07-4.68,0,0,1.02,3.94,2.27,4.86,3.15,2.31-4.35.22-6.11-4.95-.35-1.03-1.35-3.36-.04-7,.75-2.07,1.77-2.86,1.77-2.86,0,0,.45,3.39,2.02,4.66,1.28,1.04,3.25,3.07,3.69,4.55Z"/>
      <path class="cls-1" d="M33.02,104.8c.65,2.19.9,6.78-.52,5.42-1.9-1.81-3.07-4.68-3.07-4.68,0,0,1.02,3.94,2.27,4.86,3.15,2.31-4.35.22-6.11-4.95-.35-1.03-1.35-3.36-.04-7,.75-2.07,1.77-2.86,1.77-2.86,0,0,.45,3.39,2.02,4.66,1.28,1.04,3.25,3.07,3.69,4.55Z"/>
      <path class="cls-1" d="M62.83,44.86c.65,2.19.9,6.78-.52,5.42-1.9-1.81-3.07-4.68-3.07-4.68,0,0,1.02,3.94,2.27,4.86,3.15,2.31-4.35.22-6.11-4.95-.35-1.03-1.35-3.36-.04-7,.75-2.07,1.77-2.86,1.77-2.86,0,0,.45,3.39,2.02,4.66,1.28,1.04,3.25,3.07,3.69,4.55Z"/>
      <path class="cls-1" d="M67.16,97.79c.65,2.19.9,6.78-.52,5.42-1.9-1.81-3.07-4.68-3.07-4.68,0,0,1.02,3.94,2.27,4.86,3.15,2.31-4.35.22-6.11-4.95-.35-1.03-1.35-3.36-.04-7,.75-2.07,1.77-2.86,1.77-2.86,0,0,.45,3.39,2.02,4.66,1.28,1.04,3.25,3.07,3.69,4.55Z"/>
      <path class="cls-1" d="M11.69,123.33c1.62,1.62,4.02,5.53,2.12,5.02-2.53-.69-4.93-2.66-4.93-2.66,0,0,2.77,2.98,4.31,3.19,3.87.53-3.72,2.26-7.73-1.44-.8-.74-2.79-2.31-3.36-6.13-.33-2.18.19-3.36.19-3.36,0,0,2.01,2.76,3.99,3.13,1.62.3,4.32,1.15,5.41,2.24Z"/>
      <path class="cls-1" d="M83.27,106.21c0,3.99-1.85,11.79-3.57,8.81-2.28-3.97-2.81-9.36-2.81-9.36,0,0-.25,7.1,1.39,9.25,4.12,5.42-7.39-1.79-7.77-11.3-.08-1.89-.6-6.29,3.41-11.72,2.28-3.1,4.37-3.91,4.37-3.91,0,0-.92,5.9,1.07,8.79,1.63,2.38,3.91,6.75,3.91,9.43Z"/>
      <path class="cls-1" d="M113.98,28.74c-1.27,4.34-2.15,14.3.66,11.61,3.74-3.59,8.07-11.83,8.07-11.83,0,0-3.1,10.68-5.57,12.5-6.2,4.58,8.6.4,12.04-9.81.69-2.03,2.65-6.64.03-13.83-1.49-4.09-3.51-5.64-3.51-5.64,0,0-2.05,3.61-5.13,6.13-2.53,2.06-5.23,6.19-6.6,10.88Z"/>
      <path class="cls-1" d="M127.24,74.06c-1.12,3.83-1.9,12.63.58,10.25,3.31-3.17,7.13-10.45,7.13-10.45,0,0-2.74,9.43-4.91,11.04-5.48,4.04,7.59.35,10.63-8.67.61-1.79,2.34-5.87.02-12.21-1.32-3.61-3.1-4.98-3.1-4.98,0,0-1.81,3.19-4.53,5.41-2.23,1.82-4.62,5.47-5.83,9.6Z"/>
      <path class="cls-1" d="M167.51,106.53c-1.12,3.83-1.9,12.63.58,10.25,3.31-3.17,7.13-10.45,7.13-10.45,0,0-2.74,9.43-4.91,11.04-5.48,4.04,7.59.35,10.63-8.67.61-1.79,2.34-5.87.02-12.21-1.32-3.61-3.1-4.98-3.1-4.98,0,0-1.81,3.19-4.53,5.41-2.23,1.82-4.62,5.47-5.83,9.6Z"/>
      <path class="cls-1" d="M154.95,143.43c-2.44,3.16-6.37,11.07-3.19,9.76,4.23-1.74,10.45-7.13,10.45-7.13,0,0-5.98,7.79-8.6,8.49-6.57,1.77,6.94,3.1,13.06-4.2,1.22-1.45,4.32-4.61,4.47-11.36.09-3.85-1.07-5.77-1.07-5.77,0,0-2.85,2.31-6.19,3.39-2.74.88-6.29,3.41-8.93,6.82Z"/>
      <path class="cls-1" d="M137.36,107.4c0,3.99.67,11.72,3.44,9.67,5.41-3.99,4.27-17.89,4.27-17.89,0,0,4.38,7.52-1.98,17.84-3.6,5.85,7.39-1.79,7.77-11.3.08-1.89.6-6.29-3.41-11.72-2.28-3.1-4.37-3.91-4.37-3.91,0,0-1.15,1.35-3.13,4.24-1.63,2.38-2.59,8.77-2.59,13.08Z"/>
      <path class="cls-1" d="M48.62,110.37c1.72,3.6,5.65,10.29,7.26,7.26,3.17-5.93-3.84-17.99-3.84-17.99,0,0,7.19,4.9,5.88,16.95-.74,6.83,5.9-4.79,2.16-13.55-.74-1.74-2.16-5.93-8.12-9.12-3.39-1.82-5.63-1.65-5.63-1.65,0,0-.45,1.71-1,5.18-.45,2.84,1.43,9.03,3.28,12.92Z"/>
      <path class="cls-1" d="M44.71,159.33c1.72,3.6,5.65,10.29,7.26,7.26,3.17-5.93-3.84-17.99-3.84-17.99,0,0,7.19,4.9,5.88,16.95-.74,6.83,5.9-4.79,2.16-13.55-.74-1.74-2.16-5.93-8.12-9.12-3.39-1.82-5.63-1.65-5.63-1.65,0,0-.45,1.71-1,5.18-.45,2.84,1.43,9.03,3.28,12.92Z"/>
      <path class="cls-1" d="M104.99,62.24c0,3.99.67,11.72,3.44,9.67,5.41-3.99,4.27-17.89,4.27-17.89,0,0,4.38,7.52-1.98,17.84-3.6,5.85,7.39-1.79,7.77-11.3.08-1.89.6-6.29-3.41-11.72-2.28-3.1-4.37-3.91-4.37-3.91,0,0-1.15,1.35-3.13,4.24-1.63,2.38-2.59,8.77-2.59,13.08Z"/>
      <path class="cls-1" d="M151.14,64.08c0,3.99,1.85,11.79,3.57,8.81,2.28-3.97,2.81-9.36,2.81-9.36,0,0,.25,7.1-1.39,9.25-4.12,5.42,7.39-1.79,7.77-11.3.08-1.89.6-6.29-3.41-11.72-2.28-3.1-4.37-3.91-4.37-3.91,0,0,.92,5.9-1.07,8.79-1.63,2.38-3.91,6.75-3.91,9.43Z"/>
      <path class="cls-1" d="M84.97,64.4c0,4.77,2.21,14.09,4.26,10.53,2.73-4.74,3.36-11.17,3.36-11.17,0,0,.3,8.48-1.66,11.05-4.92,6.47,8.82-2.14,9.28-13.5.09-2.26.71-7.51-4.07-14-2.72-3.7-5.22-4.67-5.22-4.67,0,0,1.1,7.04-1.27,10.5-1.95,2.84-4.67,8.06-4.67,11.27Z"/>
      <path class="cls-1" d="M64.47,85.06c1.45,2.16,5.3,5.7,5.14,3.46-.21-2.98-1.89-6.08-1.89-6.08,0,0,2.72,3.75,2.62,5.51-.25,4.43,3.34-3.66.08-8.94-.65-1.05-1.97-3.62-6.11-5.1-2.36-.84-3.79-.52-3.79-.52,0,0,2.65,2.85,2.63,5.14-.02,1.88.34,5.07,1.32,6.53Z"/>
      <path class="cls-1" d="M78.94,133.53c1.45,2.16,5.3,5.7,5.14,3.46-.21-2.98-1.89-6.08-1.89-6.08,0,0,2.72,3.75,2.62,5.51-.25,4.43,3.34-3.66.08-8.94-.65-1.05-1.97-3.62-6.11-5.1-2.36-.84-3.79-.52-3.79-.52,0,0,2.65,2.85,2.63,5.14-.02,1.88.34,5.07,1.32,6.53Z"/>
      <path class="cls-1" d="M78.95,44.2c1.45,2.16,5.3,5.7,5.14,3.46-.21-2.98-1.89-6.08-1.89-6.08,0,0,2.72,3.75,2.62,5.51-.25,4.43,3.34-3.66.08-8.94-.65-1.05-1.97-3.62-6.11-5.1-2.36-.84-3.79-.52-3.79-.52,0,0,2.65,2.85,2.63,5.14-.02,1.88.34,5.07,1.32,6.53Z"/>
      <path class="cls-1" d="M81.58,87.91c1.45,2.16,5.3,5.7,5.14,3.46-.21-2.98-1.89-6.08-1.89-6.08,0,0,2.72,3.75,2.62,5.51-.25,4.43,3.34-3.66.08-8.94-.65-1.05-1.97-3.62-6.11-5.1-2.36-.84-3.79-.52-3.79-.52,0,0,2.65,2.85,2.63,5.14-.02,1.88.34,5.07,1.32,6.53Z"/>
      <path class="cls-1" d="M141.84,50.11c-1.33,2.24-2.89,7.23-.94,6.13,2.6-1.46,4.69-4.31,4.69-4.31,0,0-2.22,4.06-3.86,4.72-4.11,1.66,4.74,1.45,8.12-3.75.67-1.04,2.43-3.33,1.99-7.71-.25-2.5-1.15-3.65-1.15-3.65,0,0-1.45,3.61-3.52,4.57-1.7.79-4.44,2.48-5.33,3.98Z"/>
      <path class="cls-1" d="M94.09,38.08c1.45,2.16,5.3,5.7,5.14,3.46-.21-2.98-1.89-6.08-1.89-6.08,0,0,2.72,3.75,2.62,5.51-.25,4.43,3.34-3.66.08-8.94-.65-1.05-1.97-3.62-6.11-5.1-2.36-.84-3.79-.52-3.79-.52,0,0,2.65,2.85,2.63,5.14-.02,1.88.34,5.07,1.32,6.53Z"/>
      <path class="cls-1" d="M101.1,91.76c-1.45,2.16-5.3,5.7-5.14,3.46.21-2.98,1.89-6.08,1.89-6.08,0,0-2.72,3.75-2.62,5.51.25,4.43-3.34-3.66-.08-8.94.65-1.05,1.97-3.62,6.11-5.1,2.36-.84,3.79-.52,3.79-.52,0,0-2.65,2.85-2.63,5.14.02,1.88-.34,5.07-1.32,6.53Z"/>
      <path class="cls-1" d="M68.08,121.23c-1.05,1.56-3.83,4.11-3.71,2.5.15-2.15,1.36-4.39,1.36-4.39,0,0-1.96,2.7-1.89,3.98.18,3.2-2.41-2.64-.06-6.46.47-.76,1.42-2.61,4.41-3.68,1.7-.61,2.73-.38,2.73-.38,0,0-1.91,2.06-1.9,3.71.01,1.36-.25,3.66-.95,4.71Z"/>
      <path class="cls-1" d="M42.44,49.1c2.15,3.18,7.83,8.4,7.59,5.1-.32-4.39-2.8-8.97-2.8-8.97,0,0,4.02,5.52,3.88,8.13-.37,6.54,4.92-5.41.1-13.2-.96-1.55-2.91-5.33-9.03-7.51-3.49-1.24-5.59-.76-5.59-.76,0,0,3.91,4.2,3.89,7.58-.02,2.77.52,7.49,1.96,9.63Z"/>
      <path class="cls-1" d="M20.42,88.18c2.27,2.16,7.7,5.32,6.93,2.73-1.02-3.44-3.79-6.65-3.79-6.65,0,0,4.17,3.69,4.5,5.79.85,5.27,2.97-5.16-2.22-10.52-1.03-1.07-3.25-3.73-8.5-4.39-2.99-.38-4.58.37-4.58.37,0,0,3.85,2.66,4.42,5.35.47,2.21,1.72,5.87,3.24,7.32Z"/>
      <path class="cls-1" d="M13.5,118.41c3.09.49,9.36.01,7.26-1.68-2.79-2.25-6.9-3.32-6.9-3.32,0,0,5.52.68,6.99,2.21,3.69,3.85-.48-5.94-7.8-7.4-1.46-.29-4.79-1.23-9.49,1.2-2.68,1.39-3.56,2.9-3.56,2.9,0,0,4.68.01,6.67,1.9,1.64,1.55,4.74,3.86,6.82,4.18Z"/>
      <path class="cls-1" d="M107.54,128.08c0,3.99,1.85,11.79,3.57,8.81,2.28-3.97,2.81-9.36,2.81-9.36,0,0,.25,7.1-1.39,9.25-4.12,5.42,7.39-1.79,7.77-11.3.08-1.89.6-6.29-3.41-11.72-2.28-3.1-4.37-3.91-4.37-3.91,0,0,.92,5.9-1.07,8.79-1.63,2.38-3.91,6.75-3.91,9.43Z"/>
      <path class="cls-1" d="M50.39,135.35c0,2.88,1.34,8.51,2.57,6.36,1.65-2.86,2.03-6.75,2.03-6.75,0,0,.18,5.12-1,6.68-2.97,3.91,5.33-1.29,5.61-8.15.06-1.37.43-4.54-2.46-8.46-1.65-2.23-3.15-2.82-3.15-2.82,0,0,.66,4.25-.77,6.34-1.18,1.71-2.82,4.87-2.82,6.8Z"/>
      <path class="cls-1" d="M100.09,104.06c0,3.73,1.85,11.03,3.57,8.24,2.28-3.71,2.81-8.75,2.81-8.75,0,0,.25,6.64-1.39,8.66-4.12,5.07,7.39-1.68,7.77-10.57.08-1.77.6-5.88-3.41-10.97-2.28-2.9-4.37-3.66-4.37-3.66,0,0,.92,5.52-1.07,8.22-1.63,2.22-3.91,6.31-3.91,8.82Z"/>
      <path class="cls-1" d="M32.46,52.88c.77,2.55,3.46,7.16,3.97,4.93.69-2.97,0-6.51,0-6.51,0,0,1.53,4.48.9,6.17-1.58,4.25,4.36-2.57,2.78-8.71-.32-1.22-.83-4.12-4.43-6.82-2.05-1.54-3.54-1.65-3.54-1.65,0,0,1.72,3.58,1.02,5.81-.58,1.83-1.19,5.06-.68,6.77Z"/>
      <path class="cls-1" d="M33.4,90c.85,2.8,3.8,7.89,4.38,5.43.76-3.27-.01-7.17-.01-7.17,0,0,1.68,4.93.99,6.79-1.74,4.68,4.8-2.83,3.06-9.59-.35-1.35-.92-4.54-4.88-7.51-2.26-1.69-3.9-1.82-3.9-1.82,0,0,1.9,3.94,1.12,6.4-.64,2.01-1.32,5.57-.74,7.45Z"/>
      <path class="cls-1" d="M153.65,129.01c-1.59,2.47-3.56,8.04-1.31,6.88,3-1.55,5.48-4.67,5.48-4.67,0,0-2.68,4.5-4.56,5.18-4.72,1.71,5.29,1.84,9.33-3.9.8-1.14,2.88-3.66,2.57-8.62-.18-2.83-1.15-4.17-1.15-4.17,0,0-1.78,4.02-4.17,5.02-1.96.82-5.12,2.62-6.19,4.28Z"/>
      <path class="cls-1" d="M139.54,145.91c-.65,2.19-.9,6.78.52,5.42,1.9-1.81,3.07-4.68,3.07-4.68,0,0-1.02,3.94-2.27,4.86-3.15,2.31,4.35.22,6.11-4.95.35-1.03,1.35-3.36.04-7-.75-2.07-1.77-2.86-1.77-2.86,0,0-.45,3.39-2.02,4.66-1.28,1.04-3.25,3.07-3.69,4.55Z"/>
      <path class="cls-1" d="M152.73,104.72c-.65,2.19-.9,6.78.52,5.42,1.9-1.81,3.07-4.68,3.07-4.68,0,0-1.02,3.94-2.27,4.86-3.15,2.31,4.35.22,6.11-4.95.35-1.03,1.35-3.36.04-7-.75-2.07-1.77-2.86-1.77-2.86,0,0-.45,3.39-2.02,4.66-1.28,1.04-3.25,3.07-3.69,4.55Z"/>
      <path class="cls-1" d="M118.59,97.71c-.65,2.19-.9,6.78.52,5.42,1.9-1.81,3.07-4.68,3.07-4.68,0,0-1.02,3.94-2.27,4.86-3.15,2.31,4.35.22,6.11-4.95.35-1.03,1.35-3.36.04-7-.75-2.07-1.77-2.86-1.77-2.86,0,0-.45,3.39-2.02,4.66-1.28,1.04-3.25,3.07-3.69,4.55Z"/>
      <path class="cls-1" d="M174.06,123.25c-1.62,1.62-4.02,5.53-2.12,5.02,2.53-.69,4.93-2.66,4.93-2.66,0,0-2.77,2.98-4.31,3.19-3.87.53,3.72,2.26,7.73-1.44.8-.74,2.79-2.31,3.36-6.13.33-2.18-.19-3.36-.19-3.36,0,0-2.01,2.76-3.99,3.13-1.62.3-4.32,1.15-5.41,2.24Z"/>
      <path class="cls-1" d="M121.28,84.98c-1.45,2.16-5.3,5.7-5.14,3.46.21-2.98,1.89-6.08,1.89-6.08,0,0-2.72,3.75-2.62,5.51.25,4.43-3.34-3.66-.08-8.94.65-1.05,1.97-3.62,6.11-5.1,2.36-.84,3.79-.52,3.79-.52,0,0-2.65,2.85-2.63,5.14.02,1.88-.34,5.07-1.32,6.53Z"/>
      <path class="cls-1" d="M125.5,114.33c1.05,1.56,3.83,4.11,3.71,2.5-.15-2.15-1.36-4.39-1.36-4.39,0,0,1.96,2.7,1.89,3.98-.18,3.2,2.41-2.64.06-6.46-.47-.76-1.42-2.61-4.41-3.68-1.7-.61-2.73-.38-2.73-.38,0,0,1.91,2.06,1.9,3.71-.01,1.36.25,3.66.95,4.71Z"/>
      <path class="cls-1" d="M165.33,88.1c-2.27,2.16-7.7,5.32-6.93,2.73,1.02-3.44,3.79-6.65,3.79-6.65,0,0-4.17,3.69-4.5,5.79-.85,5.27-2.97-5.16,2.22-10.52,1.03-1.07,3.25-3.73,8.5-4.39,2.99-.38,4.58.37,4.58.37,0,0-3.85,2.66-4.42,5.35-.47,2.21-1.72,5.87-3.24,7.32Z"/>
      <path class="cls-1" d="M145.58,132.13c-2.6,1.74-8.48,3.94-7.29,1.53,1.59-3.22,4.86-5.92,4.86-5.92,0,0-4.73,2.94-5.42,4.95-1.73,5.05-2.06-5.59,3.96-9.99,1.2-.88,3.83-3.13,9.12-2.9,3.01.13,4.45,1.14,4.45,1.14,0,0-4.24,1.98-5.26,4.53-.83,2.1-2.68,5.49-4.43,6.66Z"/>
      <path class="cls-1" d="M133.13,140.63c0,2.88-1.34,8.51-2.57,6.36-1.65-2.86-2.03-6.75-2.03-6.75,0,0-.18,5.12,1,6.68,2.97,3.91-5.33-1.29-5.61-8.15-.06-1.37-.43-4.54,2.46-8.46,1.65-2.23,3.15-2.82,3.15-2.82,0,0-.66,4.25.77,6.34,1.18,1.71,2.82,4.87,2.82,6.8Z"/>
      <path class="cls-1" d="M150.35,83.88c-.52,1.71-2.32,4.82-2.67,3.32-.46-2,0-4.38,0-4.38,0,0-1.03,3.01-.6,4.15,1.07,2.86-2.94-1.73-1.87-5.86.21-.82.56-2.77,2.98-4.59,1.38-1.03,2.38-1.11,2.38-1.11,0,0-1.16,2.41-.68,3.91.39,1.23.8,3.4.46,4.55Z"/>
      <path class="cls-1" d="M76.18,21.21c1.78,2.59,6.46,6.82,6.24,4.12-.29-3.59-2.35-7.32-2.35-7.32,0,0,3.32,4.49,3.22,6.62-.26,5.35,3.99-4.45,0-10.79-.79-1.26-2.42-4.34-7.43-6.08-2.86-.99-4.57-.58-4.57-.58,0,0,3.22,3.41,3.23,6.17,0,2.26.47,6.12,1.67,7.86Z"/>
      <path class="cls-2" d="M25.15,170.36c-1.91,1.82-4.93,1.75-6.75-.16-1.82-1.91-1.75-4.93.16-6.75s8.54-.91,11.01-3.9c1.68-2.04-2.51,8.99-4.41,10.81Z"/>
      <path class="cls-2" d="M34.17,172.75c-.18,1.83-1.81,3.17-3.65,2.99-1.83-.18-3.17-1.81-2.99-3.65s4.11-4.37,4.05-7.08c-.04-1.84,2.77,5.9,2.59,7.73Z"/>
      <path class="cls-2" d="M41.13,172.4c.57,1.26,0,2.73-1.25,3.3s-2.73,0-3.3-1.25c-.57-1.26,1.03-4.37-.01-6.1-.71-1.18,3.99,2.79,4.56,4.05Z"/>
      <g>
        <g>
          <path class="cls-1" d="M112.82,228.24c7.34,1.46,14.59,2.89,21.81,4.91,14.55,4.08,23.47,8.11,35.94,16.59-27.07-3.23-54.55,3.94-80.94,3.07-17.92-.59-35.56-4.84-53.44-5.84-5.04-.28-10.26.4-15.2-.61,10.23-6.18,18.57-9.93,30.1-13.21,9.97-2.84,14.35-4.25,24.67-5.3.14-.01,3.51-.5,3.89-.54,10.92-1.02,22.32-.3,33.17.92Z"/>
          <path class="cls-1" d="M20.98,246.36c4.94,1.01,10.16.33,15.2.61,17.88,1,35.53,5.25,53.44,5.84,26.39.87,53.87-6.3,80.94-3.07,4.91,3.34,9.7,6.54,13.82,10.9l-.46.46H2.4c-.74-.6-.32-.45,0-.92,2.04-2.97,14.73-11.5,18.58-13.82Z"/>
          <path class="cls-1" d="M110.71,232.07c6.42,1.02,12.78,2.03,19.1,3.44,12.74,2.86,20.55,5.68,31.47,11.62-23.7-2.26-47.77,2.76-70.88,2.15-15.69-.41-31.15-3.39-46.8-4.09-4.42-.2-8.99.28-13.31-.43,8.96-4.33,16.26-6.96,26.36-9.25,8.73-1.99,13-2.98,22.04-3.71.12,0,2.64-.35,2.98-.38,9.57-.71,19.54-.21,29.05.65Z"/>
          <path class="cls-1" d="M108.67,236.02c5.55.56,11.04,1.1,16.49,1.87,11,1.55,17.75,3.08,27.18,6.31-20.47-1.23-41.25,1.5-61.21,1.17-13.55-.22-26.9-1.84-40.42-2.22-3.81-.11-7.76.15-11.5-.23,7.74-2.35,14.04-3.78,22.76-5.02,7.54-1.08,11.23-1.62,19.03-2.02.11,0,2.28-.19,2.57-.2,8.26-.39,16.88-.11,25.09.35Z"/>
          <path class="cls-1" d="M24.88,246.85c4.42,0,6.27-.16,11.31.12,17.88,1,35.53,5.25,53.44,5.84,26.39.87,48.43-5.85,74.74-3.47,5.91.53,5.79,3.82,9.92,8.18l-.46.46H10.22c-.74-.6-.32-.45,0-.92,2.04-2.97,10.15-10.2,14.65-10.2Z"/>
          <path class="cls-1" d="M29.4,247.06c3.61.17,4.25-.1,6.79-.09,17.91.09,35.53,5.25,53.44,5.84,26.39.87,42.34-5.44,68.07-3.71,5.92.4,4.12.93,8.24,5.29l-.46.46c-90.76,0-57.2-.03-147.96-.03-.74-.6-.32-.45,0-.92,2.04-2.97,7.37-7.05,11.86-6.84Z"/>
        </g>
        <path class="cls-1" d="M121.66,146.49v.29c-.28-.05-.88.11-.88-.15l.88-.15Z"/>
        <path class="cls-2" d="M95.12,172.89c17.3-6.53,10-26.5-3.07-41.83,12.35,8.04,19.62,18.59,23.71,31.02,3.86,11.76,4.4,23.67.81,37.82-1.49,5.86-4.71,16.58-6.18,21.7-4.6,16.06-11.06,28.5-12.1,28.19-.08-.03-.13-.15-.12-.21,3.4-26.06,4.89-35.11,2.51-41.3-.49-1.27-24.73,40.68-23.58,31.69,1.52-11.84,12.27-29.98,12.43-49.42.08-9.45-22.28-1.29-35.37,0-1.1.11-1.41-1.42-.37-1.77M92.39,171.02c.58-.2,1.3-.44,1.83-.78,4.14-2.52,5.54-7.91,3.12-12.15-2.18-3.53-6.71-5-10.61-3.67l5.66,16.6ZM86.73,154.42l5.66,16.6c-3.9,1.33-8.29-.18-10.47-3.72-2.56-4.2-1.17-9.58,3.12-12.15.53-.34,1.11-.54,1.69-.73Z"/>
        <path class="cls-2" d="M65.26,205.23c8.99-2.33,6.41-12.74.7-21.14,5.74,4.7,8.82,10.39,10.19,16.84,1.3,6.1.94,12.11-1.61,19.01-1.06,2.86-3.24,8.06-4.25,10.55-3.16,7.8-7.05,13.69-7.55,13.48-.04-.02-.06-.08-.05-.11,3.09-12.88,4.32-17.34,3.46-20.57-.18-.66-14.53,19.05-13.48,14.61,1.39-5.86,7.73-14.36,8.85-24.11.54-4.73-11.07-1.86-17.68-1.92-.55,0-.63-.79-.09-.91M64,204.15c.3-.07.67-.15.96-.29,2.21-1.04,3.19-3.66,2.21-5.92-.9-1.89-3.09-2.87-5.11-2.41l1.95,8.63ZM62.05,195.52l1.95,8.63c-2.02.46-4.14-.54-5.03-2.43-1.06-2.24-.07-4.87,2.21-5.92.28-.14.58-.21.88-.28Z"/>
        <path class="cls-2" d="M161.36,199.64c.69.26.43,1.27-.29,1.17-8.66-1.18-23.72,1.11-23.92,7.41-.41,12.96,8.3,22.99,9,30.92.53,6.02-15.25-21.85-15.61-21.01-1.75,4.06-3.46,8.7-1.89,26.14,0,.04-1.29,1.25-1.34,1.26-.7.18-3.34-8.3-4.89-19.32-.75-5.36-1.1-10.74-1.43-14.75-.93-11.23-1.34-17.44,1.54-25.18,3.04-8.18,8.16-15.03,16.57-20.08-9.09,9.89-14.2,24.42-2.88,29.2M139.36,180.32c-2.56-.98-5.61-.12-7.15,2.18-1.72,2.77-.94,6.39,1.75,8.17.34.24.82.42,1.19.57l4.2-10.92ZM140.46,180.85c2.78,1.82,3.56,5.44,1.75,8.17-1.54,2.3-4.49,3.2-7.05,2.21l4.2-10.92c.38.15.76.29,1.1.53Z"/>
      </g>
    </g>
  </g>
</svg>